<?xml version="1.0" encoding="UTF-8" standalone="no"?>
<svg
   xmlns:dc="http://purl.org/dc/elements/1.1/"
   xmlns:cc="http://creativecommons.org/ns#"
   xmlns:rdf="http://www.w3.org/1999/02/22-rdf-syntax-ns#"
   xmlns:svg="http://www.w3.org/2000/svg"
   xmlns="http://www.w3.org/2000/svg"
   xmlns:sodipodi="http://sodipodi.sourceforge.net/DTD/sodipodi-0.dtd"
   xmlns:inkscape="http://www.inkscape.org/namespaces/inkscape"
   width="10.5139in"
   height="9.5in"
   viewBox="0 0 757 684"
   id="svg2994"
   version="1.1"
   inkscape:version="0.48.4 r9939"
   sodipodi:docname="beard3.svg">
  <metadata
     id="metadata3001">
    <rdf:RDF>
      <cc:Work
         rdf:about="">
        <dc:format>image/svg+xml</dc:format>
        <dc:type
           rdf:resource="http://purl.org/dc/dcmitype/StillImage" />
      </cc:Work>
    </rdf:RDF>
  </metadata>
  <defs
     id="defs2999" />
  <sodipodi:namedview
     pagecolor="#ffffff"
     bordercolor="#666666"
     borderopacity="1"
     objecttolerance="10"
     gridtolerance="10"
     guidetolerance="10"
     inkscape:pageopacity="0"
     inkscape:pageshadow="2"
     inkscape:window-width="1280"
     inkscape:window-height="920"
     id="namedview2997"
     showgrid="false"
     inkscape:zoom="0.85730994"
     inkscape:cx="319.87891"
     inkscape:cy="455.47324"
     inkscape:window-x="-8"
     inkscape:window-y="-8"
     inkscape:window-maximized="1"
     inkscape:current-layer="svg2994" />
  <path
     style="fill:#000000"
     d="m 402.48253,843.91257 c 2.67845,-10.6718 1.7924,-13.71226 -4.50254,-15.45037 -2.18089,-0.60217 -8.37556,-0.81972 -13.76594,-0.48342 -13.19881,0.82345 -17.80494,-1.23919 -27.80437,-12.45083 -9.59247,-10.75535 -15.83253,-15.31486 -27.95898,-20.42915 -11.29406,-4.76323 -12.03888,-4.43472 -11.18497,4.93326 0.45148,4.95305 1.61221,7.62675 5.95003,13.70566 2.96402,4.15371 5.16426,7.55218 4.88942,7.55218 -0.27483,0 -2.26973,-0.74775 -4.43309,-1.66168 -5.33778,-2.25499 -11.17638,-8.64704 -18.80699,-20.58973 -3.51547,-5.5021 -9.32751,-12.87007 -12.91563,-16.3733 -6.73133,-6.57204 -19.5494,-13.86599 -25.01979,-14.23715 -2.95356,-0.2004 -3.16016,0.14423 -4.06882,6.78751 -0.52651,3.84925 -0.66314,8.99083 -0.30362,11.42573 0.60977,4.12971 0.49866,4.34414 -1.65404,3.19204 -6.3148,-3.37958 -12.05013,-15.05883 -14.61356,-29.7587 -0.99211,-5.68914 -2.00249,-10.54256 -2.24528,-10.78535 -0.2428,-0.24281 -1.55109,0.96922 -2.90732,2.69338 -2.06382,2.62373 -2.46585,4.72564 -2.46585,12.89225 0,11.82493 -1.01078,12.28484 -8.55587,3.89288 -3.66183,-4.07283 -6.05977,-8.26014 -7.84879,-13.70566 -4.85548,-14.77934 -7.1416,-17.65799 -14.07155,-17.71875 -6.72886,-0.059 -8.43961,4.09867 -6.46409,15.70984 l 0.79382,4.66575 -2.4959,-4.66575 c -1.37275,-2.56617 -6.14427,-9.25611 -10.60338,-14.86652 -4.45912,-5.61042 -9.60876,-12.94607 -11.44367,-16.30145 -2.8869,-5.27911 -3.46251,-5.79038 -4.27431,-3.79651 -0.51597,1.26729 -0.93857,6.24091 -0.93911,11.05247 -8.4e-4,7.62078 0.47315,9.61272 3.67777,15.45532 2.02331,3.68887 3.2654,6.70703 2.76022,6.70703 -1.6473,0 -9.54086,-9.49131 -11.20404,-13.47185 -0.89225,-2.13548 -3.22887,-9.81975 -5.19247,-17.07616 -4.3071,-15.91678 -7.15709,-22.11256 -13.1745,-28.64107 -6.41863,-6.9638 -10.01062,-8.89903 -27.73314,-14.9416 -26.024284,-8.87311 -28.492957,-11.54711 -27.608947,-29.90531 0.303021,-6.29283 0.374388,-11.4415 0.158594,-11.4415 -1.470314,0 -10.925145,15.0457 -10.958395,17.43836 l -0.04133,2.97432 -1.666993,-2.91609 c -1.268009,-2.21815 -1.676884,-7.87153 -1.708326,-23.6204 -0.02554,-12.7963 -0.48046,-20.7043 -1.191032,-20.7043 -0.632335,0 -3.41184,0.60504 -6.176678,1.34451 -4.039098,1.0803 -5.695701,1.02299 -8.429881,-0.29161 -4.664828,-2.24285 -8.738967,-8.64502 -8.738967,-13.73255 l 0,-4.16957 1.902105,2.71563 c 2.13358,3.04611 8.249304,5.96852 12.490328,5.96852 2.695594,0 2.764863,-0.20398 1.808206,-5.32472 C 69.523608,583.6398 61.348258,572.33488 52.728642,569.21799 l -3.777657,-1.36602 1.04998,-6.09438 c 1.497028,-8.68914 -0.447574,-14.7656 -6.950002,-21.71722 -4.686258,-5.00999 -5.019979,-5.69453 -2.776144,-5.69453 3.514719,0 8.925127,-2.96279 11.112058,-6.08507 1.127501,-1.60974 1.820467,-5.10447 1.820467,-9.18088 0,-7.89955 -1.760303,-10.54153 -11.641977,-17.47313 -7.524354,-5.27804 -11.87298,-10.95921 -14.11394,-18.43886 -1.853172,-6.18534 -0.511883,-12.42982 5.911564,-27.52174 2.653681,-6.23484 4.680642,-12.87634 4.680642,-15.33651 0,-4.9126 -4.738964,-14.11808 -11.938673,-23.19096 l -4.628089,-5.8322 8.267803,-0.65686 c 9.284087,-0.73761 12.951941,-3.11475 16.084399,-10.42431 2.309109,-5.38828 1.394434,-15.9794 -1.940616,-22.47059 -2.940596,-5.72344 -11.656735,-15.05801 -17.39279,-18.62684 l -3.966112,-2.46763 3.382892,-2.70791 c 1.86059,-1.48935 5.088809,-3.03093 7.173819,-3.42573 2.08501,-0.39479 3.790928,-1.12992 3.790928,-1.63361 0,-1.11164 -7.373427,-7.6978 -9.358856,-8.35961 -0.978458,-0.32615 -0.282827,-2.72572 2.237684,-7.71881 8.97197,-17.77337 10.819234,-28.40436 6.08973,-35.04633 -2.914024,-4.09237 -10.057681,-7.18823 -16.586768,-7.18823 l -4.740167,0 3.615996,-4.56557 c 6.418429,-8.10392 9.922304,-17.23762 9.960244,-25.96379 0.0435,-10.00407 -2.080045,-13.05844 -12.835024,-18.46109 l -8.1270413,-4.08254 6.5066683,-3.18889 c 8.419869,-4.12656 15.525763,-11.37414 19.746165,-20.1399 l 3.369596,-6.99863 -10.728677,-0.67671 c -17.4906137,-1.10321 -18.2368126,-1.88526 -5.992849,-6.28079 11.834977,-4.24869 21.520626,-8.96228 27.006039,-13.14264 3.156699,-2.40569 11.999606,-14.07776 11.999606,-15.83871 0,-0.30268 -3.805508,-0.50997 -8.456685,-0.46065 -6.967044,0.0738 -9.484024,-0.44789 -14.288881,-2.96202 -3.207708,-1.67844 -7.33284,-4.4746 -9.166961,-6.21373 l -3.334765,-3.16201 4.352488,-1.49632 c 2.393867,-0.82297 6.256551,-3.12843 8.583741,-5.12323 7.407847,-6.34978 14.191529,-10.34965 18.902663,-11.14559 2.516162,-0.4251 4.574839,-1.17292 4.574839,-1.66182 0,-1.31211 -6.252458,-9.59251 -9.480951,-12.55603 -3.671961,-3.37059 -9.560549,-5.75931 -16.763933,-6.80031 -3.207708,-0.46357 -6.264354,-1.09318 -6.792545,-1.39914 -1.36081,-0.78827 18.566447,-11.85922 24.872354,-13.8183 2.886938,-0.89689 6.954895,-1.31606 9.039905,-0.93148 4.351138,0.80256 4.595247,0.001 2.515464,-8.258436 C 61.950517,88.695813 57.800968,83.975266 49.24594,78.906695 l -6.877501,-4.074692 5.127842,-2.224018 C 62.529098,66.088039 67.363053,63.682652 75.020052,58.912094 84.451065,53.036268 91.472257,45.707492 95.406966,37.632073 97.453643,33.431564 98.051482,30.202498 98.033526,23.44543 98.020741,18.633868 97.623467,13.226738 97.150696,11.429585 96.295848,8.180036 96.315414,8.166778 100.7025,9.0228985 c 5.49046,1.0714385 6.8281,1.0721995 12.28486,0.00699 3.93156,-0.7674792 4.37414,-0.6072339 4.37414,1.5837327 l 0,2.437609 L 272.20632,12.3816 C 518.87686,11.314873 758.1183,9.8713406 760.65277,9.4344179 c 1.28309,-0.2211925 4.26835,-0.3085888 6.63394,-0.194214 4.05131,0.1958794 4.51041,0.6312665 7.90656,7.4982001 6.50567,13.154331 28.91651,41.521648 38.53249,48.773881 2.88694,2.177286 9.35623,7.90445 14.3762,12.727032 10.31165,9.906189 10.23237,10.180991 -3.00342,10.410442 -3.68886,0.06395 -6.70702,0.574318 -6.70702,1.134153 0,0.559834 2.49326,3.296495 5.54058,6.081465 3.04733,2.784972 9.02549,9.497183 13.28482,14.916023 7.25725,9.23291 18.89119,18.81001 22.84976,18.81001 2.0262,0 1.87241,0.84278 -0.85198,4.66883 -3.43397,4.82256 -12.33035,10.27721 -18.19664,11.15691 -2.82148,0.42312 -5.12995,1.18513 -5.12995,1.69337 0,0.50824 2.41127,2.52123 5.3584,4.47333 6.2804,4.15996 16.23928,6.52658 23.12141,5.49453 4.21277,-0.63174 5.24609,-0.33334 7.6289,2.20305 l 2.75612,2.93374 -4.56032,1.9472 c -5.8836,2.51222 -16.64405,2.45181 -27.27368,-0.15312 -4.56925,-1.11975 -8.49848,-1.84205 -8.73163,-1.60511 -1.08536,1.10296 22.75057,27.22969 27.81827,30.4918 5.11647,3.29349 5.47888,3.79732 3.51423,4.8854 -1.20481,0.66726 -4.1316,3.08577 -6.50396,5.37448 -7.15792,6.90543 -7.3388,13.61062 -0.5503,20.39912 4.35622,4.35622 10.36416,6.3345 19.26558,6.34374 5.555,0.006 6.09449,0.21393 4.75072,1.83308 -2.78366,3.35409 -8.50639,5.47495 -19.005,7.04329 -5.72419,0.85509 -10.67,1.81711 -10.99068,2.13781 -0.92559,0.92558 16.81842,17.1277 24.02104,21.93372 10.59312,7.06837 16.11923,8.4672 33.44979,8.4672 8.34004,0 17.2633,-0.42285 19.82947,-0.93965 l 4.66576,-0.93964 -5.47589,3.95538 c -11.01235,7.95451 -34.42163,17.02597 -44.51988,17.25215 -2.01324,0.045 -4.6299,0.46347 -5.81479,0.92975 -5.0167,1.97417 4.88724,5.961 22.08591,8.89071 14.49541,2.46921 19.2212,4.09702 24.14987,8.3185 3.74722,3.20953 10.158,11.14571 10.158,12.575 0,0.37346 -2.23082,-0.22831 -4.95737,-1.33728 -5.85752,-2.38242 -19.04728,-2.67802 -26.02229,-0.58321 -6.62596,1.98998 -15.1458,7.89747 -17.96234,12.45474 -3.83651,6.2076 -4.14844,10.34865 -1.23315,16.37083 3.02414,6.24704 9.03375,10.76776 20.32071,15.28625 l 7.82701,3.13337 -6.5843,2.67605 c -11.98045,4.86922 -13.70118,8.44723 -6.92408,14.39761 3.49373,3.06754 3.76081,3.62015 1.74966,3.62015 -2.77159,0 -7.03923,3.8874 -7.03923,6.41206 0,0.96045 1.89822,3.84739 4.21827,6.41541 l 4.21826,4.66912 -6.55114,0 c -4.9959,0 -7.10497,0.55382 -8.88402,2.33288 -3.13021,3.13021 -2.98084,8.87876 0.39647,15.25763 1.50115,2.83527 5.4896,10.29434 8.86325,16.57568 9.62522,17.9211 9.54394,27.54663 -0.28319,33.53861 -2.05016,1.25006 -4.05415,2.2748 -4.4533,2.27719 -0.39917,0.002 -1.055,-2.05461 -1.4574,-4.57112 -0.67678,-4.23233 -5.58898,-11.75466 -7.67599,-11.75466 -1.29951,0 -7.05424,13.23351 -7.05424,16.22185 0,4.2331 2.85984,9.67027 9.25982,17.60488 3.36349,4.17003 7.10532,9.50517 8.31517,11.85586 2.91836,5.67031 4.79038,14.34046 3.87973,17.96877 -0.72199,2.87665 -0.78331,2.89113 -3.80403,0.89796 -7.98695,-5.27005 -13.53354,-7.67107 -19.69405,-8.5252 -3.68771,-0.51128 -6.86295,-0.78901 -7.05609,-0.61719 -0.19314,0.17184 1.04828,5.17679 2.75871,11.12213 4.00453,13.91947 3.74995,27.61472 -0.68252,36.71753 -1.8802,3.86132 -2.96851,5.12955 -3.23874,3.77421 -0.58776,-2.94781 -1.61831,-2.58884 -7.54521,2.62822 -7.30655,6.43149 -9.02089,11.97181 -9.02089,29.15333 0,17.48488 -1.8542,24.00676 -8.99586,31.64178 -2.92636,3.12851 -5.68279,5.6882 -6.12539,5.6882 -0.44261,0 -0.27461,-2.58799 0.37335,-5.75108 1.55175,-7.57518 -1.05781,-13.63506 -8.02687,-18.63987 -2.75986,-1.98198 -5.32579,-3.60359 -5.70207,-3.60359 -0.37627,0 -0.68414,5.46524 -0.68414,12.145 0,13.79179 -2.26929,27.52867 -5.63869,34.13325 -1.25991,2.46966 -5.47987,7.26408 -9.37768,10.65428 -7.28995,6.34061 -8.55239,8.46506 -20.32329,34.2001 -4.65889,10.18587 -10.09154,16.73825 -17.18186,20.72322 -2.71396,1.52533 -4.73186,2.30807 -4.48425,1.73943 0.24762,-0.56864 2.22931,-4.44573 4.40376,-8.61575 2.96893,-5.69362 4.094,-9.52525 4.51748,-15.38517 0.6968,-9.64171 -0.0861,-12.40148 -2.86949,-10.11625 -1.06479,0.87418 -4.16121,5.00125 -6.88092,9.17127 -6.81869,10.45478 -8.86313,12.37441 -17.20946,16.15881 -9.53838,4.32491 -14.55432,10.33069 -20.60618,24.67262 -7.30543,17.31268 -8.14886,17.9108 -7.39314,5.24292 0.34445,-5.77387 0.1391,-11.76102 -0.45634,-13.30475 l -1.08263,-2.80681 -3.25297,4.26486 c -4.06735,5.33257 -5.30895,5.3752 -5.30895,0.18231 0,-5.05814 -1.23405,-5.14197 -5.26004,-0.35736 -3.74779,4.45401 -4.81831,6.99622 -7.70762,18.30372 -2.8846,11.28906 -5.69023,15.58107 -13.77334,21.07021 -7.69521,5.22571 -13.05778,10.97061 -16.45328,17.62634 l -2.38322,4.67151 -2.85936,-3.39815 c -5.96413,-7.08798 -17.39579,-9.34447 -24.71901,-4.87929 -2.064,1.25847 -6.61875,6.16357 -10.12167,10.90022 -8.3049,11.2299 -11.14827,12.49839 -21.60184,9.63703 -13.26889,-3.63198 -13.43605,-3.64729 -12.39752,-1.13588 0.50349,1.21758 1.18251,4.72159 1.50894,7.7867 0.45849,4.30527 0.11898,6.09725 -1.49258,7.878 -2.05277,2.26829 -2.11925,2.23092 -4.16623,-2.34113 -3.12597,-6.98209 -8.09403,-9.5763 -17.37951,-9.07516 -6.5751,0.35486 -8.66606,1.08944 -15.74693,5.53206 -13.01,8.16264 -20.4471,11.67954 -24.69838,11.67954 -5.14558,0 -13.13755,-4.16572 -22.36108,-11.65544 -4.07029,-3.30518 -7.57343,-5.83649 -7.78477,-5.62516 -0.21133,0.21134 2.39917,7.87539 5.80113,17.03124 5.67019,15.2605 5.97854,16.5823 3.70222,15.87024 -3.81851,-1.19448 -11.31283,-6.71389 -16.4804,-12.13745 -6.80692,-7.14412 -12.55693,-10.48206 -18.05663,-10.48206 -6.02413,0 -9.3547,3.13352 -9.3547,8.80125 l 0,4.13549 -7.29024,-5.9061 c -7.69777,-6.23625 -12.482,-8.1827 -20.12108,-8.18622 -6.7914,-0.004 -11.5708,3.52969 -17.7318,13.1069 -9.97279,15.5026 -16.79358,22.47579 -15.00188,15.3371 l 0,0 z m 166.29098,-171.34368 0,-11.08117 -6.86424,0 -6.86423,0 -0.77929,6.70703 c -0.42862,3.68886 -1.07242,8.41294 -1.43066,10.49795 -0.59562,3.46653 -0.39357,3.79093 2.36121,3.79093 2.378,0 3.2064,-0.74809 3.93287,-3.55159 l 0.92031,-3.55159 4.00761,4.13481 c 2.20419,2.27414 4.1671,4.13481 4.36202,4.13481 0.19492,0 0.3544,-4.98653 0.3544,-11.08118 z m -356.68054,6.28799 c 1.98804,-2.34724 2.00388,-2.3436 2.75095,0.63295 0.58305,2.32311 1.48366,2.9938 4.02004,2.9938 3.08235,0 3.4733,-0.61019 6.85908,-10.70546 1.97473,-5.88801 3.4156,-10.88029 3.20193,-11.09397 -0.21368,-0.21367 -2.30737,0.91368 -4.65266,2.50524 -4.04069,2.74209 -4.26415,2.77333 -4.26415,0.596 0,-3.04649 -3.47045,-2.99048 -7.42455,0.11982 l -3.0734,2.41754 0,-2.41754 c 0,-1.80109 -0.74358,-2.41754 -2.9161,-2.41754 -2.89707,0 -2.9161,0.0693 -2.9161,10.62441 l 0,10.62441 3.20771,-0.75941 c 1.76424,-0.41768 4.1075,-1.8218 5.20725,-3.12025 z m 42.90837,1.29387 c 0,-1.90354 -0.77763,-2.33288 -4.22536,-2.33288 -3.45956,0 -3.98333,-0.29163 -2.88994,-1.60909 0.73448,-0.88499 2.89834,-1.92166 4.80859,-2.30372 2.48113,-0.49622 3.47315,-1.36928 3.47315,-3.05666 0,-1.84686 -0.76322,-2.36204 -3.49932,-2.36204 -1.92462,0 -3.49932,-0.5249 -3.49932,-1.16644 0,-0.64154 1.83715,-1.16644 4.08254,-1.16644 3.30491,0 4.08254,-0.44436 4.08254,-2.33288 0,-2.08875 -0.77763,-2.33288 -7.43119,-2.33288 l -7.43119,0 -0.8231,7.29025 c -0.45271,4.00963 -1.11102,8.73371 -1.46292,10.49795 l -0.6398,3.20771 7.72766,0 c 6.95003,0 7.72766,-0.23476 7.72766,-2.33288 z m 26.36188,1.44019 c 2.30451,-1.53877 3.64477,-5.39498 4.45325,-12.81297 l 0.79457,-7.29025 -7.50996,0 -7.50996,0 -0.65135,3.79093 c -0.35825,2.08501 -1.00205,6.80909 -1.43067,10.49795 l -0.77929,6.70703 5.67499,-0.0178 c 3.12124,-0.009 6.25252,-0.40349 6.95842,-0.87483 l 0,-10e-6 z m 51.09524,-0.43537 c 3.13433,-1.4281 6.52651,-7.37432 6.52651,-11.44046 0,-1.37568 -1.28839,-3.78961 -2.86308,-5.3643 -2.26658,-2.26659 -4.06285,-2.86309 -8.62184,-2.86309 -6.56847,0 -6.44092,-0.21434 -7.80879,13.12244 l -0.80753,7.87347 5.32998,0 c 2.93148,0 6.64162,-0.59763 8.24475,-1.32806 z m 32.18817,-1.00482 c 0,-1.82847 -0.77763,-2.33288 -3.59651,-2.33288 -4.58474,0 -3.99138,-2.67917 0.77665,-3.50682 2.40972,-0.41828 3.51189,-1.35462 3.77582,-3.2077 0.3168,-2.22428 -0.16456,-2.61699 -3.20771,-2.61699 -1.96924,0 -3.58044,-0.5249 -3.58044,-1.16644 0,-0.64154 1.83714,-1.16644 4.08254,-1.16644 3.3049,0 4.08253,-0.44436 4.08253,-2.33288 0,-2.07072 -0.77763,-2.33288 -6.92003,-2.33288 -7.77065,0 -7.56818,-0.2408 -8.8269,10.49796 -0.41358,3.52847 -1.01181,7.33398 -1.32941,8.45668 -0.50792,1.79547 0.34497,2.04127 7.083,2.04127 6.88283,0 7.66046,-0.23681 7.66046,-2.33288 z m 23.10766,0.69758 c 1.73927,-0.89942 4.34362,-3.73712 5.7874,-6.30601 3.19573,-5.68601 6.30107,-14.22266 5.17155,-14.21668 -2.27778,0.012 -8.62641,5.04108 -9.88677,7.83171 l -1.43427,3.17567 -0.58322,-4.63105 c -0.51259,-4.0702 -0.98978,-4.67748 -3.94044,-5.01454 -2.99161,-0.34176 -3.28706,-0.0877 -2.71292,2.33288 0.35437,1.49401 1.0077,6.25945 1.45185,10.58985 0.44414,4.33041 1.29735,7.87347 1.89601,7.87347 0.59866,0 2.51152,-0.73588 4.25081,-1.6353 z m 36.38075,-0.69758 c 0,-1.88852 -0.77763,-2.33288 -4.08254,-2.33288 -2.2454,0 -4.08254,-0.54137 -4.08254,-1.20304 0,-1.25993 0.84805,-1.64828 6.12381,-2.8043 2.18326,-0.47839 3.20771,-1.44082 3.20771,-3.01351 0,-1.86313 -0.79072,-2.31066 -4.08254,-2.31066 -2.2454,0 -4.08254,-0.5249 -4.08254,-1.16644 0,-0.64154 2.09959,-1.16644 4.66576,-1.16644 3.88813,0 4.66576,-0.38881 4.66576,-2.33288 0,-2.08944 -0.77763,-2.33288 -7.45205,-2.33288 l -7.45204,0 -0.65135,3.79093 c -0.35825,2.08501 -1.00204,6.80909 -1.43066,10.49795 l -0.7793,6.70703 7.71627,0 c 6.93862,0 7.71625,-0.23511 7.71625,-2.33288 z m 26.8281,0 c 0,-1.833 -0.77763,-2.33288 -3.62913,-2.33288 -4.00197,0 -3.84986,1.17729 -1.54474,-11.956 0.72438,-4.12708 0.59695,-4.37415 -2.25595,-4.37415 -3.38587,0 -3.61117,0.57043 -5.18292,13.12244 l -0.9859,7.87347 6.79932,0 c 6.02169,0 6.79932,-0.26681 6.79932,-2.33288 z m 26.17519,1.19294 c 6.36711,-2.42077 8.514,-15.73093 3.01228,-18.67536 -10.2832,-5.5034 -21.65835,8.78743 -13.49355,16.95222 3.08231,3.08232 5.75197,3.52122 10.48127,1.72314 l 0,0 z m 25.61868,-1.7425 c 0.3979,-1.58533 1.72611,-3.41903 2.9516,-4.07489 3.99448,-2.13778 5.90937,-4.8107 5.90937,-8.24865 0,-3.9718 -2.68227,-5.78993 -8.5418,-5.78993 -4.46098,0 -4.44751,-0.0315 -6.11141,14.28888 -0.76554,6.58865 -0.72769,6.70703 2.14475,6.70703 2.13708,0 3.11876,-0.77576 3.64749,-2.88244 l 0,0 z m 35.68908,0.54956 c 0,-1.82847 -0.77763,-2.33288 -3.59652,-2.33288 -4.58473,0 -3.99138,-2.67917 0.77665,-3.50682 2.40973,-0.41828 3.51189,-1.35462 3.77582,-3.2077 0.31681,-2.22428 -0.16456,-2.61699 -3.2077,-2.61699 -1.96925,0 -3.58045,-0.5249 -3.58045,-1.16644 0,-0.64154 1.83714,-1.16644 4.08254,-1.16644 3.33662,0 4.08254,-0.43641 4.08254,-2.38854 0,-2.18933 -0.60795,-2.35958 -7.2895,-2.04127 l -7.28949,0.34727 -0.82957,6.99864 c -0.45625,3.84925 -1.09959,8.4421 -1.42964,10.20634 l -0.60007,3.20771 7.55269,0 c 6.77507,0 7.5527,-0.24019 7.5527,-2.33288 l 0,0 z m -355.05424,-8.12931 c 6.61813,-2.88823 10.78611,-8.75619 12.15452,-17.11192 0.61573,-3.75972 1.12253,-22.45156 1.12625,-41.53742 l 0.007,-34.70157 -11.09859,0 -11.0986,0 0.0717,33.91422 c 0.0806,38.1264 -0.31619,40.28409 -8.20192,44.59955 -5.41379,2.96269 -5.79345,3.72866 -5.81434,11.73071 l -0.0178,6.84407 9.0399,-0.82312 c 4.97195,-0.4527 11.19643,-1.76424 13.83219,-2.91452 l -6e-5,0 z M 613.39418,655.2062 c 8.78383,-2.067 15.35746,-6.53784 18.63562,-12.67442 2.51716,-4.71202 2.66624,-6.40637 3.02756,-34.40866 l 0.38002,-29.45259 -10.42783,0 -10.42781,0 -0.74177,5.41178 c -0.40797,2.97648 -0.74469,13.60566 -0.74828,23.62039 -0.007,19.84128 -1.06293,25.93969 -4.96412,28.67219 -4.1609,2.91441 -10.7806,2.30477 -13.57708,-1.25039 -3.11483,-3.95986 -3.39457,-6.14173 -4.28439,-33.41679 l -0.75156,-23.03718 -10.37051,0 -10.37052,0 0,27.19962 c 0,30.18102 1.01438,36.53136 6.6796,41.8165 4.45245,4.15372 7.9875,5.87182 15.48275,7.52488 8.57756,1.89178 14.40235,1.8904 22.45832,-0.006 l 0,5e-4 z m -347.65545,-1.36365 c 7.44768,-2.53767 14.21615,-8.75475 18.03996,-16.57035 2.99667,-6.12496 3.25648,-7.73582 3.24051,-20.09104 -0.0212,-16.41219 -2.37518,-22.93306 -11.11523,-30.79112 -6.94044,-6.24005 -15.51861,-8.88595 -28.80886,-8.88595 -12.58456,0 -21.09607,3.10912 -28.43076,10.38534 -7.05572,6.99945 -9.54105,14.95806 -9.58147,30.68217 -0.0273,10.64261 0.21249,11.79387 3.99004,19.15139 4.22983,8.23844 11.28605,14.41997 19.0178,16.66033 6.28817,1.82209 27.72453,1.47757 33.64801,-0.54077 z m 78.23549,0.5764 c 10.58708,-2.94006 15.81326,-12.60162 14.52164,-26.84592 -1.06883,-11.78729 -6.30239,-16.41959 -23.01021,-20.36673 -11.18389,-2.64213 -15.16371,-4.63647 -15.16371,-7.59868 0,-4.64514 10.1265,-5.9276 22.74557,-2.88061 11.52985,2.78399 11.08117,3.08187 11.08117,-7.35671 l 0,-9.12969 -9.0399,-1.37597 c -11.15183,-1.69741 -26.23334,-1.75564 -32.10896,-0.12397 -10.46881,2.90721 -17.12352,14.39694 -15.43773,26.65408 1.51883,11.04325 7.31996,15.7338 25.2703,20.43245 4.26767,1.11711 8.89169,3.08598 10.27559,4.37528 2.26217,2.10753 2.34825,2.59803 0.85265,4.85871 -1.35539,2.04874 -3.00911,2.57938 -8.9275,2.86464 -6.54438,0.31544 -12.59646,-1.0121 -24.29654,-5.32957 -1.17377,-0.43314 -1.43082,1.72399 -1.16644,9.78843 l 0.3391,10.34399 5.8322,1.35145 c 7.43087,1.72189 32.45382,1.94365 38.23277,0.33882 z m 48.66696,-15.09357 0,-15.16372 12.83083,0 12.83083,0 0,15.16372 0,15.16371 11.08117,0 11.08118,0 0,-37.90928 0,-37.90928 -11.08118,0 -11.08117,0 0,14.58049 0,14.58049 -12.83083,0 -12.83083,0 0,-14.58049 0,-14.58049 -10.49796,0 -10.49795,0 0,37.90928 0,37.90928 10.49795,0 10.49796,0 0,-15.16371 z m 120.14324,2.80634 0,-12.35736 12.98735,12.35736 12.98734,12.35737 13.84076,0 c 7.61242,0 13.84076,-0.40462 13.84076,-0.89915 0,-0.49454 -4.75517,-5.61229 -10.56706,-11.37279 -5.81189,-5.76049 -13.49833,-14.03608 -17.08097,-18.39018 -5.72191,-6.95403 -6.36521,-8.24289 -5.29099,-10.60057 1.159,-2.54371 23.36177,-27.50076 27.49677,-30.90776 3.61539,-2.97888 1.97267,-3.64811 -8.95478,-3.64811 -13.29008,0 -16.3801,1.42394 -29.91358,13.78483 l -9.3456,8.53584 0,-11.16033 0,-11.16034 -10.49795,0 -10.49795,0 0,37.90928 0,37.90928 10.49795,0 10.49795,0 0,-12.35737 z m 193.62893,4.77551 0,-7.58185 -16.91337,0 -16.91337,0 0,-30.32743 0,-30.32742 -10.49796,0 -10.49795,0 0,37.90928 0,37.90928 27.41132,0 27.41133,0 0,-7.58186 z m 31.49386,-4.66576 0,-12.24761 9.2741,0 c 17.93578,0 26.47524,-4.10638 31.07073,-14.94101 2.92149,-6.8879 1.85148,-19.61543 -2.1585,-25.67493 -5.89569,-8.90898 -9.62768,-9.97533 -36.72828,-10.49445 l -23.6204,-0.45245 0,38.02903 0,38.02904 11.08117,0 11.08118,0 0,-12.24762 z M 357.8822,507.37163 c 3.39967,-0.72191 9.20661,-2.8327 12.90431,-4.69066 l 6.72309,-3.37812 14.06974,2.40054 c 11.53023,1.96724 15.2638,2.17979 20.68524,1.17759 6.79879,-1.25683 16.32706,-4.39202 18.14353,-5.96997 2.26795,-1.97014 -6.14978,-16.26581 -14.72835,-25.01287 -7.66984,-7.82048 -8.23704,-8.70227 -5.58165,-8.67727 2.9795,0.028 8.87643,1.22499 13.77308,2.7956 2.55314,0.81893 2.62284,0.6622 1.86516,-4.19406 -1.07678,-6.90139 -3.40373,-13.2712 -6.36976,-17.43663 -1.36658,-1.91916 -2.21261,-3.76147 -1.88007,-4.09401 0.33253,-0.33254 6.29489,0.3538 13.24969,1.52521 17.98322,3.02892 61.82045,3.02956 76.74877,0.001 10.88794,-2.20879 26.64941,-7.2661 33.19587,-10.6514 l 3.80826,-1.96933 -0.83139,2.70896 c -0.92527,3.01484 -1.47961,3.82819 -8.00284,11.74222 -2.50878,3.04367 -5.44711,8.15019 -6.52961,11.34782 l -1.96819,5.81386 -2.71996,-5.80722 c -1.49597,-3.19398 -3.0313,-5.80724 -3.41184,-5.80724 -1.00466,0 -7.0808,22.45461 -7.86278,29.05723 -2.0441,17.25923 8.94034,24.06067 38.69764,23.96115 25.63974,-0.0857 26.69197,-0.55678 46.65804,-20.88595 l 16.33062,-16.62759 -5.60674,-17.37555 c -3.08369,-9.55654 -7.6592,-25.11318 -10.16779,-34.5703 -5.97581,-22.52812 -9.03231,-28.82871 -18.5372,-38.21204 -8.67979,-8.56878 -20.27096,-16.46699 -43.47422,-29.62334 -18.80407,-10.66199 -22.11265,-11.77856 -38.23848,-12.90447 -6.71571,-0.4689 -15.37652,-1.84538 -19.24624,-3.05885 -8.92054,-2.79732 -14.01583,-2.78385 -25.91298,0.0685 -5.43202,1.30232 -13.22334,2.23987 -18.07981,2.17557 -9.62349,-0.12738 -16.0838,1.90034 -39.40586,12.36848 -23.2745,10.44677 -38.69175,21.90445 -45.4413,33.77069 -4.43911,7.8043 -6.57507,15.73892 -8.82443,32.78078 -2.19605,16.63786 -4.23347,24.26847 -9.01568,33.76576 -4.75834,9.44989 -9.49038,16.25394 -16.67259,23.97299 -7.38548,7.93749 -11.06725,12.74533 -11.06725,14.45212 0,0.71868 3.06348,2.49457 6.80773,3.94644 4.47759,1.73623 9.66194,5.21042 15.14661,10.15022 13.41025,12.07801 17.93344,13.68975 30.76963,10.96405 l 0,0 z M 260.38176,448.8067 c 3.13542,-1.60795 9.04926,-5.77914 13.14187,-9.2693 7.36468,-6.28057 7.46811,-6.45251 10.06864,-16.74007 2.98322,-11.8015 9.29179,-27.75692 15.38931,-38.92216 9.25204,-16.94152 19.78208,-28.08667 38.25373,-40.48837 10.79296,-7.24628 27.60936,-21.55283 44.30808,-37.6951 16.07007,-15.53456 22.73892,-20.70326 31.62867,-24.51385 9.43497,-4.0443 14.24811,-4.67899 44.2065,-5.8293 16.03854,-0.61583 33.71952,-1.44593 39.29105,-1.84468 12.60082,-0.90179 14.22196,-0.0404 27.72124,14.72964 5.29396,5.79234 11.80314,11.79739 14.46481,13.34457 2.68362,1.55995 11.85411,4.41038 20.58634,6.39879 22.01149,5.01219 35.72386,11.8826 49.56824,24.83552 11.93335,11.16493 17.01275,17.75935 23.88871,31.01392 6.30516,12.15421 11.70038,18.03269 25.65047,27.948 7.99883,5.68532 12.89226,10.2584 17.75865,16.59609 6.96711,9.07351 10.54614,11.52233 16.97094,11.61178 3.35344,0.0467 5.65229,-1.86344 20.41268,-16.96102 23.54136,-24.07911 25.05633,-26.65045 33.10381,-56.18634 2.22778,-8.17641 4.80734,-17.49069 5.73234,-20.69839 0.92501,-3.20771 1.68805,-8.00523 1.69567,-10.66117 0.008,-2.65593 1.01325,-9.74205 2.23476,-15.74693 4.46168,-21.93355 4.99531,-30.4404 3.70083,-58.99656 -1.75821,-38.78602 -0.81074,-45.20509 12.18627,-82.5626 l 8.92793,-25.66167 -1.27839,-10.78668 c -1.25,-10.54733 -15.00691,-83.234658 -15.92933,-84.165808 -0.72695,-0.733828 -5.97963,11.727594 -8.13775,19.305937 -3.04661,10.698359 -3.74537,51.723101 -1.12361,65.968811 7.09752,38.56537 -19.15824,80.57608 -64.73815,103.58475 -17.58978,8.8793 -42.50427,16.12629 -64.47733,18.75483 -16.21213,1.93939 -46.04048,0.80167 -61.8544,-2.35924 -23.65068,-4.72735 -47.6959,-14.58322 -64.7464,-26.53883 -12.40109,-8.69551 -30.35378,-27.47837 -36.58105,-38.27263 -14.28797,-24.76659 -16.51393,-49.3203 -6.69641,-73.86542 6.768,-16.920923 4.58598,-20.360952 -13.29776,-20.96452 -6.52424,-0.22019 -13.96186,0.05155 -16.52802,0.603857 -4.52167,0.973192 -4.67639,1.165103 -5.0097,6.214463 -0.24758,3.750702 0.85934,8.475607 3.95144,16.86674 7.63138,20.70951 6.76912,43.97954 -2.34042,63.16166 -5.75871,12.12619 -12.45301,21.47325 -22.36054,31.22136 -22.43286,22.07191 -49.59424,35.79237 -85.05252,42.96393 -17.26311,3.49153 -58.24221,3.75718 -74.65211,0.48394 -38.28821,-7.63726 -63.62414,-20.43756 -86.89973,-43.90376 -13.61485,-13.72636 -20.46899,-24.10414 -25.17101,-38.11123 -3.33254,-9.92747 -5.15635,-26.29027 -3.81178,-34.19865 3.11109,-18.29879 3.54178,-24.02553 2.94227,-39.12176 -0.6643,-16.727589 -2.482,-28.577763 -4.38355,-28.577763 -0.58839,0 -1.06979,-1.049795 -1.06979,-2.332879 0,-5.211899 -2.12707,-1.771077 -4.50674,7.290246 -6.54741,24.931344 -8.78367,47.584656 -8.00079,81.048126 1.01082,43.20681 4.32542,58.19457 21.86656,98.87513 l 12.57401,29.16099 3.71917,20.9959 c 5.44995,30.76679 8.70464,43.41854 13.97107,54.30883 2.58577,5.34707 4.70141,10.91701 4.70141,12.37767 0,1.46066 3.40453,9.37531 7.5656,17.58812 6.16749,12.17288 10.06349,17.94466 21.08238,31.2327 15.61518,18.83088 30.75166,32.95331 40.75516,38.02485 5.89315,2.98768 7.94064,3.4566 12.96228,2.96862 3.28002,-0.31874 8.52899,-1.89513 11.66439,-3.50309 l 0,0 z m 33.78432,-213.14307 c 23.51279,-2.28858 46.48023,-9.53196 64.95949,-20.48668 12.11923,-7.18441 31.13223,-25.80714 37.36203,-36.59509 12.74931,-22.07762 14.62875,-48.68839 5.10413,-72.26896 C 396.80681,94.466633 391.35627,86.321652 381.56,76.378607 373.95714,68.661831 370.17572,65.878653 361.14732,61.354577 355.05267,58.30059 347.89507,54.311438 345.24155,52.489796 334.90831,45.396047 318.2478,40.751311 293.49384,38.063196 c -15.33867,-1.665677 -18.43205,-1.667845 -33.22509,-0.02329 -23.68711,2.63331 -38.21899,6.619249 -55.78247,15.300529 -13.39811,6.622426 -19.204,10.702599 -30.261,21.266394 -19.39977,18.534439 -28.32708,38.361875 -28.17056,62.566435 0.0885,13.68292 2.35636,23.28066 8.2686,34.99318 17.36714,34.40533 51.40052,55.911 99.51158,62.88128 13.98962,2.02681 24.229,2.18318 40.33118,0.61591 l 0,0 z m 325.34754,-1.12593 c 59.78944,-5.5812 103.52935,-38.16244 113.03888,-84.20107 3.54214,-17.14859 1.42675,-32.92129 -6.73141,-50.19032 -24.82855,-52.556636 -106.23492,-78.652821 -175.32,-56.201789 -5.0264,1.633461 -12.28829,4.988395 -16.13754,7.455408 -3.84925,2.467013 -10.86368,6.373158 -15.58761,8.68032 -10.78305,5.266426 -18.526,11.716643 -27.2631,22.711361 -12.18695,15.335979 -18.01777,29.75627 -19.17584,47.424 -2.92878,44.68188 32.33211,85.40965 85.89027,99.20675 22.10918,5.69555 39.51105,7.14802 61.28635,5.11534 l 0,0 z"
     id="path3003"
     inkscape:connector-curvature="0"
     transform="matrix(0.8,0,0,0.8,-3.90625e-4,0)" />
  <path
     style="fill:#000000"
     d="m 239.00849,636.09173 c -4.10189,-3.20563 -6.1695,-9.77083 -6.1695,-19.58978 0,-14.42844 5.21481,-21.48722 15.88124,-21.49691 9.57013,-0.009 14.60531,7.10941 14.74388,20.84305 0.16622,16.47439 -3.86137,22.33031 -15.3271,22.28491 -4.40109,-0.0174 -7.39569,-0.68707 -9.12852,-2.04127 z"
     id="path3005"
     inkscape:connector-curvature="0"
     transform="matrix(0.8,0,0,0.8,-3.90625e-4,0)" />
  <path
     style="fill:#000000"
     d="m 737.90721,604.16972 0,-9.49399 5.97973,0.70821 c 9.76633,1.15668 13.83195,5.5722 11.33805,12.31385 -1.14102,3.08446 -7.51537,5.96592 -13.19778,5.96592 l -4.12,0 0,-9.49399 z"
     id="path3007"
     inkscape:connector-curvature="0"
     transform="matrix(0.8,0,0,0.8,-3.90625e-4,0)" />
  <path
     style="fill:#000000"
     d="m 470.0922,674.78655 c 0.38523,-1.00388 0.70041,-2.58264 0.70041,-3.50836 0,-1.58441 5.60138,-4.5779 6.63396,-3.54533 1.55493,1.55494 -1.40918,6.56923 -4.52546,7.65557 -3.00154,1.04634 -3.40797,0.95925 -2.80891,-0.60188 z"
     id="path3009"
     inkscape:connector-curvature="0"
     transform="matrix(0.8,0,0,0.8,-3.90625e-4,0)" />
  <path
     style="fill:#000000"
     d="m 559.83968,668.80603 c 0.003,-0.0983 0.17033,-0.82823 0.37276,-1.6221 0.35565,-1.39475 0.391,-1.44563 1.04885,-1.50969 0.99357,-0.0968 1.66667,0.59749 1.66667,1.71902 l 0,0.85915 -1.08255,0.24353 c -0.5954,0.13395 -1.29132,0.29872 -1.54649,0.36616 -0.25517,0.0674 -0.46183,0.0422 -0.45924,-0.0561 z"
     id="path3011"
     inkscape:connector-curvature="0"
     transform="matrix(0.8,0,0,0.8,-3.90625e-4,0)" />
  <path
     style="fill:#000000"
     d="m 324.7988,677.23615 c 0.0316,-1.17934 2.00542,-11.06758 2.22378,-11.14036 0.45262,-0.15088 3.27861,1.33795 4.26443,2.24664 1.19547,1.10195 1.59956,1.87007 1.57693,2.99751 -0.0455,2.26457 -2.49074,4.52647 -6.31637,5.84269 -1.47566,0.5077 -1.76117,0.51643 -1.74877,0.0535 z"
     id="path3013"
     inkscape:connector-curvature="0"
     transform="matrix(0.8,0,0,0.8,-3.90625e-4,0)" />
  <path
     style="fill:#000000"
     d="m 276.91909,667.76235 0,-1.32422 1.28875,0.97636 c 0.70881,0.537 1.31007,0.98904 1.33614,1.00453 0.0261,0.0155 -0.55387,0.17203 -1.28875,0.34786 l -1.33614,0.31969 0,-1.32422 z"
     id="path3015"
     inkscape:connector-curvature="0"
     transform="matrix(0.8,0,0,0.8,-3.90625e-4,0)" />
  <path
     style="fill:#000000"
     d="m 274.72821,677.44235 c 0.0578,-0.19847 0.26073,-1.16471 0.45095,-2.14719 l 0.34586,-1.78635 0.95478,0.40924 c 0.52514,0.22508 1.11115,0.55072 1.30226,0.72365 0.36748,0.33252 1.27664,2.12162 1.14502,2.25324 -0.0678,0.0678 -3.96324,0.90826 -4.20968,0.90826 -0.0519,0 -0.047,-0.16238 0.0108,-0.36085 z"
     id="path3017"
     inkscape:connector-curvature="0"
     transform="matrix(0.8,0,0,0.8,-3.90625e-4,0)" />
</svg>
