<?xml version="1.0" encoding="UTF-8" standalone="no"?>
<svg
   xmlns:dc="http://purl.org/dc/elements/1.1/"
   xmlns:cc="http://creativecommons.org/ns#"
   xmlns:rdf="http://www.w3.org/1999/02/22-rdf-syntax-ns#"
   xmlns:svg="http://www.w3.org/2000/svg"
   xmlns="http://www.w3.org/2000/svg"
   xmlns:sodipodi="http://sodipodi.sourceforge.net/DTD/sodipodi-0.dtd"
   xmlns:inkscape="http://www.inkscape.org/namespaces/inkscape"
   width="10.5139in"
   height="9.5in"
   viewBox="0 0 757 684"
   id="svg2994"
   version="1.1"
   inkscape:version="0.48.4 r9939"
   sodipodi:docname="beard2.svg">
  <metadata
     id="metadata3001">
    <rdf:RDF>
      <cc:Work
         rdf:about="">
        <dc:format>image/svg+xml</dc:format>
        <dc:type
           rdf:resource="http://purl.org/dc/dcmitype/StillImage" />
      </cc:Work>
    </rdf:RDF>
  </metadata>
  <defs
     id="defs2999" />
  <sodipodi:namedview
     pagecolor="#ffffff"
     bordercolor="#666666"
     borderopacity="1"
     objecttolerance="10"
     gridtolerance="10"
     guidetolerance="10"
     inkscape:pageopacity="0"
     inkscape:pageshadow="2"
     inkscape:window-width="1280"
     inkscape:window-height="920"
     id="namedview2997"
     showgrid="false"
     inkscape:zoom="0.55204678"
     inkscape:cx="672.62617"
     inkscape:cy="519.66436"
     inkscape:window-x="-8"
     inkscape:window-y="-8"
     inkscape:window-maximized="1"
     inkscape:current-layer="svg2994" />
  <path
     style="fill:#000000"
     d="m 403.8649,838.81728 c 1.37921,-9.64815 -1.68115,-11.49435 -19.05348,-11.49435 -15.97984,0 -19.32092,-1.56123 -30.48631,-14.24577 -8.26446,-9.38891 -20.47028,-17.25596 -32.44102,-20.9093 -7.4725,-2.28053 -6.80075,11.89325 1.03584,21.85585 2.07449,2.6373 3.37826,5.18864 2.89725,5.66965 -2.12967,2.12967 -10.65479,-6.11771 -18.80612,-18.19348 -4.872,-7.21761 -11.61877,-15.87191 -14.99283,-19.23177 -5.74089,-5.71675 -21.73343,-14.66541 -26.27998,-14.70503 -2.44526,-0.0214 -4.87638,16.23921 -3.14508,21.03581 1.02162,2.83047 0.42234,2.66722 -3.57261,-0.97316 -5.18217,-4.72223 -10.87721,-18.15268 -12.93153,-30.49613 -0.70473,-4.23424 -1.88705,-7.69862 -2.62742,-7.69862 -2.60429,0 -5.50985,8.24629 -5.99576,17.01658 l -0.49116,8.86508 -5.70006,-5.84756 c -3.13504,-3.21616 -7.49502,-10.87363 -9.68883,-17.01658 -4.32556,-12.11211 -7.49511,-15.69761 -13.87665,-15.69761 -5.29388,0 -8.10374,5.32843 -6.84721,12.98466 l 0.99053,6.03547 -3.07646,-5.43432 c -1.69207,-2.98888 -6.10774,-9.10249 -9.81265,-13.58581 -3.70489,-4.48331 -8.09265,-10.80071 -9.75057,-14.03866 -4.90555,-9.58064 -7.05303,-7.35635 -6.12114,6.34004 0.45756,6.72497 1.50322,13.78746 2.32368,15.6944 1.06688,2.47966 0.88078,3.08957 -0.65339,2.14141 -3.60394,-2.22737 -8.66228,-13.97387 -12.03029,-27.93682 -3.86497,-16.02319 -11.89562,-28.64641 -21.76331,-34.20929 -3.98517,-2.24664 -13.75755,-6.26804 -21.71639,-8.93647 -8.64326,-2.89791 -16.48508,-6.86616 -19.472986,-9.85406 -4.549621,-4.54963 -5.003181,-6.20358 -5.011363,-18.27466 l -0.0091,-13.27228 -4.535922,5.43432 c -2.494756,2.98888 -5.051195,7.74173 -5.680977,10.56189 -2.256535,10.1048 -4.200928,0.48034 -4.228893,-20.93239 l -0.02768,-21.23914 -5.367677,1.07353 c -8.907155,1.78144 -14.525961,-0.64458 -17.394702,-7.51043 -3.550016,-8.49638 -3.3242,-8.97955 2.1751,-4.65379 2.625089,2.0649 6.765599,3.75435 9.201132,3.75435 4.048403,0 4.319492,-0.50497 3.160426,-5.88718 -0.697298,-3.23795 -2.350723,-8.00783 -3.674276,-10.59975 -2.511456,-4.91817 -14.274888,-16.119 -16.928645,-16.119 -0.842032,0 -1.42503,-4.39602 -1.295548,-9.76892 0.205343,-8.52089 -0.527609,-10.7194 -5.737124,-17.20868 -4.998801,-6.22681 -5.433677,-7.43977 -2.667357,-7.43977 1.817851,0 5.116856,-1.26895 7.331123,-2.81987 3.213785,-2.25102 4.025938,-4.58188 4.025938,-11.55433 0,-8.35279 -0.437373,-9.1081 -10.009346,-17.28569 -17.159774,-14.66006 -18.888214,-22.74137 -9.77217,-45.68968 7.203736,-18.13435 6.643729,-20.88596 -8.497448,-41.75266 -2.933909,-4.04333 -2.898867,-4.07574 4.408277,-4.07574 5.174697,0 8.877526,-1.30041 12.448169,-4.37177 4.490342,-3.86242 5.082002,-5.60351 5.078418,-14.94438 -0.0047,-12.14223 -4.084469,-19.66906 -15.549404,-28.68703 -3.799886,-2.98887 -6.681881,-6.23728 -6.404433,-7.21866 0.277447,-0.9814 3.089818,-2.52582 6.249709,-3.43206 7.06213,-2.02539 7.185393,-3.57332 0.668237,-8.39167 l -5.077024,-3.75361 5.336308,-11.11837 c 10.413536,-21.69696 8.331198,-33.35721 -6.709105,-37.56823 l -8.179494,-2.29011 4.799304,-7.25225 c 3.593782,-5.43057 4.985402,-10.17484 5.540177,-18.88742 0.850718,-13.36026 -1.315102,-17.1132 -12.905115,-22.36204 l -6.874727,-3.11339 5.653437,-2.34172 c 7.276396,-3.01399 15.439774,-11.21816 19.940347,-20.04003 1.954105,-3.83036 3.552917,-7.40433 3.552917,-7.94217 0,-0.53783 -4.755032,-0.97788 -10.566737,-0.97788 -5.811706,0 -11.129117,-0.56238 -11.816468,-1.24974 -0.687352,-0.68735 3.55405,-3.05562 9.425337,-5.26281 15.353755,-5.77196 24.598995,-12.1562 30.930665,-21.35896 l 5.545115,-8.05955 -9.951169,0.0894 c -7.82473,0.0703 -11.498721,-0.93469 -17.19328,-4.70317 -7.313846,-4.84008 -9.32002,-8.36408 -4.761571,-8.36408 1.364293,0 6.580632,-3.26455 11.591865,-7.25455 5.011231,-3.99 11.638899,-7.76006 14.72815,-8.37791 6.651866,-1.33038 6.644662,-1.29696 1.925632,-8.93252 -4.120397,-6.66694 -16.39398,-13.44497 -24.505196,-13.53289 -5.152806,-0.0558 -5.204534,-0.14331 -1.692386,-2.86165 8.070751,-6.24662 21.030682,-11.57226 28.161041,-11.57226 7.449186,0 7.449791,-5.8e-4 6.222447,-5.887185 C 63.100785,90.262381 59.507783,85.318951 51.110348,79.76179 L 43.7609,74.898156 60.023641,67.295629 C 88.203715,54.121973 99.756281,39.429036 98.05592,18.924917 l -0.799956,-9.6464156 9.627186,0.08948 c 5.29496,0.049215 9.62799,0.7053259 9.62896,1.4580269 0.002,1.531026 636.10719,0.663342 647.75432,-0.8835738 7.05638,-0.9371953 7.5098,-0.7031619 9.54573,4.9270908 4.71989,13.052647 27.17939,40.002428 51.34574,61.611242 5.57105,4.981462 9.75648,9.668565 9.30094,10.415784 -0.45555,0.747219 -4.61804,1.35858 -9.24998,1.35858 l -8.42175,0 7.27368,7.698623 c 4.00053,4.234246 10.4281,11.680006 14.2835,16.546146 3.85541,4.86613 10.63406,11.14593 15.06366,13.95511 l 8.05385,5.10759 -5.35445,5.35445 c -2.94495,2.94495 -8.75129,6.37217 -12.90299,7.61605 -4.15169,1.24387 -7.54852,2.87499 -7.54852,3.62471 0,3.14869 16.06057,8.93207 24.80456,8.93207 11.33172,0 16.53191,4.27077 8.78605,7.21574 -6.23156,2.36923 -13.02638,2.32861 -24.56924,-0.14689 -5.09926,-1.09359 -9.61973,-1.64 -10.04549,-1.21423 -1.34163,1.34163 22.07125,27.58118 26.93033,30.18171 l 4.63873,2.48256 -6.21527,5.86175 c -13.04599,12.30397 -5.06109,28.01271 14.30243,28.13725 l 9.37107,0.0603 -4.15381,3.46333 c -2.28459,1.90484 -7.99063,3.96655 -12.68009,4.58161 -16.43454,2.15548 -16.54381,2.5713 -3.78085,14.38756 17.14492,15.87317 27.32342,20.01582 49.17882,20.01582 15.29265,0 17.26038,0.33499 14.49152,2.46706 -6.40155,4.92931 -23.45473,11.56051 -37.62126,14.62919 l -14.49153,3.13909 5.51125,2.8674 c 3.03121,1.57708 10.77512,3.77178 17.20869,4.87716 16.86823,2.89814 26.34059,6.82976 31.64621,13.13513 2.56002,3.04239 4.39517,5.79102 4.07814,6.10806 -0.31702,0.31703 -4.01724,-0.19667 -8.22269,-1.14157 -14.02277,-3.15072 -32.33523,3.18683 -38.52056,13.33111 -7.32833,12.01884 -2.04845,22.61042 15.41532,30.92356 l 9.00194,4.28512 -7.64336,3.89937 c -8.13534,4.15033 -9.48698,7.84334 -4.77593,13.04898 2.63419,2.91075 2.56052,3.33276 -0.90572,5.18784 -4.69236,2.51127 -4.81134,6.28802 -0.33898,10.76037 3.37129,3.3713 3.333,3.45444 -2.09165,4.53937 -13.16919,2.63383 -13.40649,8.04719 -1.34253,30.62564 10.5453,19.73617 11.79806,28.84058 4.86471,35.35413 -5.52268,5.18822 -8.48759,4.98213 -8.48759,-0.59003 0,-2.49073 -1.75083,-6.27943 -3.89072,-8.41932 l -3.89073,-3.89072 -3.2791,6.15502 c -4.82957,9.06528 -4.17637,14.66477 2.86008,24.51758 8.7202,12.21045 15.40748,25.99725 15.42853,31.80816 l 0.0181,4.88471 -10.14688,-5.33757 c -9.63757,-5.06943 -20.64803,-7.10328 -20.64803,-3.81401 0,0.83795 1.2139,5.52506 2.69756,10.41578 1.48364,4.89073 2.70636,12.74769 2.71716,17.45992 0.0214,9.3049 -5.13444,24.70555 -7.16881,21.41389 -1.85026,-2.99379 -10.87116,4.76784 -13.86267,11.92752 -1.38553,3.31604 -2.49765,12.161 -2.49765,19.86441 0,17.13526 -2.59324,26.22853 -9.31695,32.67027 l -5.17457,4.95755 0,-8.5925 c 0,-7.36863 -0.83153,-9.35198 -5.83802,-13.9247 -3.21091,-2.93273 -6.36253,-5.33221 -7.00358,-5.33221 -0.64107,0 -1.56566,7.94769 -2.05466,17.66154 -1.0785,21.42371 -4.05245,29.10777 -15.54162,40.15615 -6.50836,6.25863 -10.17517,12.07546 -14.9096,23.65165 -4.16914,10.19399 -8.86148,18.05867 -13.96636,23.40863 -8.56592,8.97714 -11.36296,9.00214 -6.73892,0.0601 3.7173,-7.18837 5.89894,-27.04617 2.97142,-27.04617 -1.09756,0 -5.31859,4.89343 -9.38011,10.87426 -5.28443,7.78166 -9.81135,12.10492 -15.9176,15.20147 -10.97168,5.56386 -13.12375,8.07517 -21.9028,25.55903 l -7.27216,14.48283 -0.0947,-12.22723 c -0.0522,-6.72497 -0.57551,-12.22722 -1.16303,-12.22722 -0.58753,0 -2.59828,1.83408 -4.46834,4.07574 l -3.40011,4.07574 -0.0603,-4.07574 c -0.14491,-9.79987 -8.16697,-1.10452 -12.84362,13.92158 -4.87952,15.67791 -6.84156,18.70352 -17.63755,27.19852 -5.27413,4.15003 -10.91119,10.31746 -12.5268,13.7054 l -2.93743,6.15989 -6.10352,-5.35896 c -4.50755,-3.95766 -7.93163,-5.35895 -13.09471,-5.35895 -7.52217,0 -12.46168,3.73675 -22.56122,17.06765 -5.02064,6.62701 -5.54946,6.85503 -13.5858,5.85809 -4.599,-0.57053 -10.59353,-1.57204 -13.32119,-2.22556 -4.89481,-1.17276 -4.93314,-1.11296 -2.94359,4.59423 1.51713,4.35205 1.47192,6.97613 -0.18274,10.60773 l -2.19853,4.82522 -2.40909,-5.72953 c -5.19594,-12.35747 -19.07302,-12.68534 -37.74675,-0.89179 -6.44925,4.07306 -13.72197,7.90654 -16.1616,8.51886 -5.79498,1.45444 -15.77765,-2.82398 -25.85362,-11.08047 -4.44381,-3.64138 -8.07966,-5.75926 -8.07966,-4.7064 0,1.05285 2.44544,8.26499 5.43432,16.027 6.32675,16.43029 6.05387,15.10107 3.10006,15.10107 -1.28384,0 -7.84399,-4.89089 -14.57811,-10.86864 -9.62741,-8.54607 -13.50277,-10.86865 -18.13502,-10.86865 -6.99977,0 -10.23862,2.7526 -10.23862,8.70142 l 0,4.35396 -6.31001,-5.54025 c -8.02977,-7.05024 -18.61489,-10.37432 -25.62856,-8.04823 -2.85778,0.9478 -7.86199,5.32743 -11.12048,9.73252 -3.25848,4.4051 -8.33794,10.86229 -11.28771,14.34931 l -5.36322,6.34005 1.07582,-7.52578 0,0 z m -33.731,-335.28899 c 6.98545,-3.22413 9.48012,-3.51476 17.20868,-2.0048 13.33181,2.60471 27.45204,2.08302 36.43074,-1.34599 4.36218,-1.66594 7.93124,-3.22625 7.93124,-3.46737 0,-3.89392 -7.74774,-16.23014 -15.0691,-23.99351 l -9.38534,-9.95198 6.34004,1.27031 c 3.48702,0.69867 7.88839,1.71063 9.78084,2.24881 3.06461,0.8715 3.3212,0.24159 2.34697,-5.76181 -0.60158,-3.70717 -2.78465,-9.98428 -4.85126,-13.94914 l -3.75745,-7.20883 5.03336,1.07927 c 35.78489,7.67316 83.29961,5.36498 109.60653,-5.32447 6.09285,-2.47575 11.36588,-4.50136 11.71784,-4.50136 1.50607,0 -4.83803,10.26245 -8.25667,13.35626 -2.05707,1.86163 -4.72306,6.34301 -5.92442,9.95865 l -2.18429,6.57386 -2.52119,-6.14078 c -3.0779,-7.49683 -4.52106,-6.10597 -8.37452,8.07105 -4.39137,16.15608 -3.96827,27.14142 1.2462,32.35588 7.56005,7.56005 33.63184,10.57563 54.0971,6.2571 8.68231,-1.83211 11.23066,-3.651 26.67857,-19.04176 l 17.07937,-17.01614 -7.5563,-23.97997 c -4.15597,-13.18897 -8.51035,-28.0557 -9.67641,-33.03716 -5.28634,-22.5835 -13.58714,-33.53609 -37.20351,-49.08868 -27.73149,-18.2626 -43.26941,-25.38731 -58.52017,-26.8336 -7.47219,-0.70863 -18.26372,-2.48057 -23.98117,-3.93764 -9.19022,-2.34212 -11.77574,-2.32909 -22.30255,0.11213 -6.54896,1.51881 -15.91374,2.76147 -20.81063,2.76147 -15.70211,0 -57.28208,18.46398 -72.60573,32.24125 -12.35781,11.11073 -17.28989,21.67523 -20.63568,44.20151 -4.53048,30.50254 -9.08408,40.67469 -27.73718,61.96144 -5.15575,5.88368 -9.37409,11.62975 -9.37409,12.76904 0,1.13929 2.75996,3.06945 6.13326,4.28924 3.3733,1.2198 9.83656,5.4776 14.36281,9.46175 4.52624,3.98416 10.52912,8.49017 13.33972,10.01337 6.67052,3.6151 20.68642,2.54473 31.39439,-2.39749 l 0,9e-5 z M 263.3388,447.08555 c 15.72888,-10.29119 17.83984,-12.9414 21.77453,-27.33677 3.9779,-14.5535 12.61674,-33.73586 21.3198,-47.34018 5.41315,-8.4616 17.00594,-18.79759 38.8401,-34.62933 6.528,-4.73338 21.7239,-17.92304 33.76868,-29.31037 13.55515,-12.81524 25.51726,-22.45676 31.39395,-25.30368 11.09113,-5.373 28.6331,-7.64598 69.93924,-9.06227 l 27.83898,-0.95454 15.93962,15.33408 c 8.7668,8.43374 16.40398,15.33408 16.97154,15.33408 5.42294,0 37.74241,10.13976 46.64715,14.63485 16.27005,8.21309 32.59086,24.65932 44.46364,44.80528 8.45669,14.34947 11.88303,18.30607 22.92289,26.47044 7.13902,5.27955 16.90569,14.19423 21.70374,19.8104 7.48201,8.75779 9.61555,10.21124 14.98924,10.21124 5.54868,0 8.17507,-1.98514 22.95581,-17.35098 9.17966,-9.54305 18.88708,-21.15891 21.57205,-25.81303 5.26428,-9.1251 15.59161,-43.89892 17.84531,-60.08811 0.76284,-5.47961 2.72184,-17.29926 4.35337,-26.26589 2.39066,-13.13876 2.73616,-22.63138 1.78015,-48.9089 -1.40841,-38.71248 -0.38629,-45.65849 12.1153,-82.33105 7.99967,-23.46654 8.85631,-27.44744 7.81535,-36.31832 -1.47976,-12.61012 -14.85981,-83.5103 -15.96913,-84.61963 -1.52319,-1.523186 -4.87879,6.672135 -8.45126,20.640384 -4.10596,16.054133 -4.78126,46.858146 -1.4264,65.065596 5.07256,27.52986 -8.99413,60.68645 -35.04607,82.60705 -28.66868,24.12236 -64.0718,37.0463 -106.72268,38.95922 -56.36372,2.52795 -101.32802,-13.5507 -134.11374,-47.95739 -27.69887,-29.0683 -34.49065,-57.26442 -22.37446,-92.88751 6.33214,-18.617246 3.97624,-21.676025 -16.66323,-21.634676 -18.72713,0.03751 -20.42274,0.81193 -19.16676,8.75371 0.57571,3.64034 2.58817,11.102116 4.47214,16.581726 7.4469,21.6596 5.98293,44.06212 -4.26151,65.21186 -7.08932,14.63599 -31.53062,39.4476 -48.65897,49.3962 C 328.5881,247.94988 271.44182,254.17223 220.16161,239.3118 158.449,221.42819 116.78548,171.13162 125.46836,124.99727 c 3.15233,-16.74913 1.83123,-57.480348 -2.09209,-64.501512 -3.45165,-6.177073 -3.83207,-5.630375 -7.5339,10.82685 -5.08932,22.62563 -6.71935,38.835242 -6.71206,66.747142 0.0121,46.37195 4.20749,66.94697 22.03335,108.05646 10.01898,23.10545 13.01333,32.32519 16.17864,49.81462 5.66326,31.29153 8.61569,43.10665 13.41676,53.69153 2.35327,5.18824 6.1482,14.32404 8.43317,20.3018 6.02986,15.77482 12.86858,26.62702 28.07182,44.54655 14.10988,16.63082 29.01686,30.38597 38.0164,35.07896 8.53859,4.45261 18.86309,3.54222 28.05835,-2.47412 l 0,0 z m 59.47385,-216.58954 c 30.77301,-8.38648 55.17927,-24.69282 70.55643,-47.14024 9.38468,-13.69966 12.96387,-23.75699 14.25245,-40.04852 1.78989,-22.62963 -6.82581,-46.957274 -22.83277,-64.471422 -8.20369,-8.976152 -25.18769,-19.861759 -49.09055,-31.463772 -18.57158,-9.014299 -51.27857,-12.745035 -79.37327,-9.053741 -63.23613,8.308442 -106.67049,44.73235 -110.31012,92.505675 -1.92495,25.26667 7.19505,47.20726 28.24394,67.94835 19.88099,19.59024 44.28635,31.28833 75.39602,36.13909 18.8638,2.94135 53.92887,0.82501 73.15787,-4.41542 l 0,0 z m 314.49521,1.76579 c 59.9048,-11.56471 99.31836,-52.87932 96.47407,-101.12734 C 732.28996,105.82615 722.78518,87.811979 700.70351,68.441763 678.16792,48.673368 647.98328,37.97713 610.13147,36.346619 582.30713,35.148053 557.10499,39.38306 540.4425,48.057266 c -5.50793,2.867333 -15.11884,7.896722 -21.35759,11.176421 -29.49333,15.504601 -50.16794,52.182523 -46.92162,83.241633 6.67128,63.82729 83.43248,105.56114 165.14457,89.78648 l 0,0 z"
     id="path3003"
     inkscape:connector-curvature="0"
     transform="matrix(0.8,0,0,0.8,-3.90625e-4,0)" />
</svg>
