<?xml version="1.0" encoding="UTF-8" standalone="no"?>
<svg
   xmlns:dc="http://purl.org/dc/elements/1.1/"
   xmlns:cc="http://creativecommons.org/ns#"
   xmlns:rdf="http://www.w3.org/1999/02/22-rdf-syntax-ns#"
   xmlns:svg="http://www.w3.org/2000/svg"
   xmlns="http://www.w3.org/2000/svg"
   xmlns:sodipodi="http://sodipodi.sourceforge.net/DTD/sodipodi-0.dtd"
   xmlns:inkscape="http://www.inkscape.org/namespaces/inkscape"
   width="10.5139in"
   height="9.5in"
   viewBox="0 0 757 684"
   id="svg2994"
   version="1.1"
   inkscape:version="0.48.4 r9939"
   sodipodi:docname="beard.svg">
  <metadata
     id="metadata3001">
    <rdf:RDF>
      <cc:Work
         rdf:about="">
        <dc:format>image/svg+xml</dc:format>
        <dc:type
           rdf:resource="http://purl.org/dc/dcmitype/StillImage" />
      </cc:Work>
    </rdf:RDF>
  </metadata>
  <defs
     id="defs2999" />
  <sodipodi:namedview
     pagecolor="#ffffff"
     bordercolor="#666666"
     borderopacity="1"
     objecttolerance="10"
     gridtolerance="10"
     guidetolerance="10"
     inkscape:pageopacity="0"
     inkscape:pageshadow="2"
     inkscape:window-width="1121"
     inkscape:window-height="733"
     id="namedview2997"
     showgrid="false"
     inkscape:zoom="0.55204678"
     inkscape:cx="399.58816"
     inkscape:cy="454.03015"
     inkscape:window-x="0"
     inkscape:window-y="0"
     inkscape:window-maximized="0"
     inkscape:current-layer="svg2994" />
  <path
     style="fill:#000000"
     d="m 405.38477,837.41349 c 0,-6.93769 -6.11697,-10.3928 -18.39955,-10.3928 -13.93279,0 -17.00769,-1.43536 -32.45513,-15.15011 -12.83556,-11.39584 -29.03152,-21.0787 -35.25712,-21.0787 -2.47392,0 -2.85818,1.37867 -2.14569,7.69862 0.47735,4.23425 1.50297,9.66018 2.27919,12.05762 2.22563,6.87431 -1.81908,3.24422 -12.62856,-11.33406 -13.13177,-17.7102 -18.45413,-22.7186 -29.62507,-27.87751 -11.04922,-5.1027 -14.79847,-4.44447 -15.05245,2.64266 -0.0993,2.77107 -0.79863,7.07618 -1.55404,9.56691 -1.28659,4.24214 -1.67391,3.89838 -6.12287,-5.43433 -2.61215,-5.4796 -5.63879,-14.24245 -6.72586,-19.47298 -1.21558,-5.84889 -2.92611,-9.51007 -4.44315,-9.51007 -2.80393,0 -3.80296,2.70849 -5.54296,15.0277 -1.20988,8.5659 -1.27862,8.64206 -4.90541,5.43432 -2.02309,-1.78932 -6.08427,-8.55179 -9.02482,-15.02769 -6.71697,-14.79257 -9.66753,-18.11441 -16.0898,-18.11441 -4.11044,0 -5.33552,0.98149 -6.21773,4.98146 -0.60428,2.73981 -1.2842,5.75192 -1.51094,6.69358 -0.22674,0.94166 -6.00393,-6.30801 -12.83822,-16.11041 -11.60693,-16.64777 -12.5351,-17.5367 -14.0816,-13.48646 -0.9106,2.38481 -1.21521,8.80354 -0.6769,14.26384 1.26775,12.85942 -0.56586,9.79796 -9.1759,-15.32037 -8.31827,-24.26714 -13.90621,-30.55922 -34.58047,-38.93795 -25.68748,-10.41047 -27.783,-11.55474 -30.389014,-16.59422 -1.425763,-2.75713 -2.592296,-9.53675 -2.592296,-15.06583 0,-5.52908 -0.755802,-10.05288 -1.679561,-10.05288 -0.923758,0 -4.098817,2.93497 -7.055686,6.52217 l -5.376126,6.52218 -1.318917,-21.10863 -1.318916,-21.10861 -5.104958,1.12123 c -5.997467,1.31726 -11.653565,-1.28132 -14.543867,-6.6819 -1.77952,-3.32506 -1.637347,-3.69242 1.03249,-2.66792 1.702898,0.65347 5.05832,1.68058 7.456495,2.28248 4.042569,1.01463 4.359824,0.58504 4.353546,-5.8949 -0.0083,-8.63443 -4.661228,-16.52137 -14.33115,-24.29234 -6.904199,-5.54835 -7.399968,-6.56241 -7.408365,-15.15317 -0.0067,-6.944 -1.057674,-10.51753 -4.275659,-14.53935 l -4.266662,-5.33244 5.63424,-3.78584 c 4.885597,-3.2828 5.705573,-5.00043 6.17108,-12.92672 0.520353,-8.86013 0.270014,-9.38447 -8.151483,-17.07337 C 33.559788,491.85107 28.605105,484.87 28.605105,478.97523 c 0,-2.73865 2.507954,-12.46509 5.573232,-21.61433 6.487061,-19.36258 6.209059,-21.91151 -3.986979,-36.55578 l -7.251966,-10.41578 7.951419,0 c 11.169289,0 15.828701,-5.1986 15.828701,-17.66037 0,-12.43054 -2.250991,-17.63179 -12.262945,-28.33539 l -8.451633,-9.03547 5.878715,-2.39876 c 5.046562,-2.05921 5.612074,-2.897 3.995031,-5.91847 -1.036024,-1.93583 -3.149655,-4.22817 -4.696955,-5.09408 -2.464988,-1.37948 -2.184123,-3.12707 2.268683,-14.11624 6.7116,-16.56367 6.923109,-28.57041 0.589019,-33.43663 -2.490731,-1.91351 -5.751324,-3.50974 -7.245763,-3.54714 -6.648856,-0.16647 -7.225342,-2.70245 -2.662908,-11.71441 3.116938,-6.15674 4.474349,-11.80963 4.474349,-18.63324 0,-8.35355 -0.743522,-10.50795 -5.05162,-14.63738 -2.778391,-2.66318 -6.546749,-5.68077 -8.37413,-6.70577 -2.991324,-1.67789 -2.592365,-2.36964 4.002411,-6.93983 7.397088,-5.12618 15.073809,-15.01675 17.438634,-22.46764 1.091821,-3.44004 0.617875,-4.05198 -3.138194,-4.05198 -2.433334,0 -6.99267,-0.51369 -10.131861,-1.14152 -5.553517,-1.1107 -5.319069,-1.33061 8.683536,-8.14438 9.504553,-4.62499 16.593949,-9.57632 20.878435,-14.58178 8.588414,-10.03363 8.382745,-12.36113 -1.092287,-12.36113 -8.22303,0 -23.24659,-6.27291 -23.163548,-9.67166 0.05253,-2.1498 16.4916,-12.91834 26.127838,-17.11525 7.360804,-3.20587 7.315029,-3.04836 2.942156,-10.12382 -3.812428,-6.16864 -16.23283,-13.80961 -22.447523,-13.80961 -1.678031,0 -3.050966,-0.66527 -3.050966,-1.47838 0,-1.96578 19.276647,-10.7487 26.71875,-12.17372 5.340067,-1.02252 5.887182,-1.73197 5.887182,-7.63391 0,-5.366483 -1.458112,-7.903743 -8.321226,-14.479762 -4.576673,-4.385224 -8.041054,-8.202267 -7.698622,-8.482317 0.342431,-0.280049 6.53229,-3.582066 13.75524,-7.337817 C 88.550321,53.652024 99.136756,40.135483 99.211508,20.37748 l 0.03978,-10.515035 8.594999,0.552111 c 7.91498,0.50843 8.68627,0.982062 9.7486,5.986433 2.55679,12.044335 1.36431,33.328208 -3.33536,59.531138 -4.25521,23.724839 -4.92321,32.297993 -4.9592,63.646833 -0.0576,50.14154 2.37275,61.31357 25.09427,115.35703 4.07635,9.69565 9.29805,28.14635 13.61471,48.10705 3.85125,17.8086 9.05504,37.63097 11.56398,44.04974 2.50895,6.41877 5.1487,13.70837 5.86611,16.1991 4.65829,16.17276 20.43003,39.50622 41.50807,61.40902 27.82893,28.91782 38.69881,32.98925 58.23409,21.8123 12.5249,-7.16603 15.7128,-11.44434 21.19724,-28.44774 6.12742,-18.99683 16.84209,-41.13965 23.69515,-48.96815 3.10448,-3.54635 17.05658,-16.00562 31.00467,-27.68727 13.9481,-11.68166 33.86003,-28.76501 44.24875,-37.96302 10.38872,-9.19798 22.21873,-18.19671 26.28893,-19.99716 8.12636,-3.59468 31.74077,-6.32311 70.77533,-8.17746 l 25.3808,-1.20571 15.85701,14.48451 c 12.89345,11.77748 17.79847,15.05943 26.24525,17.56074 45.53095,13.48285 59.49011,23.12373 81.08529,56.00158 13.46953,20.50687 52.37558,57.33302 60.57108,57.33302 6.56593,0 17.33538,-9.22949 35.5026,-30.42595 9.87524,-11.52183 12.04875,-15.47195 16.94446,-30.7945 11.52625,-36.07485 14.67111,-56.72408 16.60895,-109.05497 2.06254,-55.69856 3.36751,-64.91564 12.79546,-90.37507 5.12811,-13.84807 6.97046,-21.60623 6.97046,-29.3529 0,-5.79136 -3.58905,-31.964748 -7.97567,-58.163074 -10.60184,-63.3175734 -10.34052,-61.219129 -7.62345,-61.219129 3.10385,0 7.80351,5.493714 19.37021,22.643008 5.37576,7.970339 18.55118,23.18186 29.27871,33.80338 l 19.50462,19.311853 -7.25708,1.226075 c -3.99141,0.674343 -7.25709,1.964402 -7.25709,2.866799 0,3.014373 25.635,30.777238 32.79099,35.512848 3.88338,2.56991 7.06071,5.3379 7.06071,6.15109 0,2.30997 -11.47749,10.48935 -17.82281,12.70133 -3.14926,1.09784 -5.72592,2.63773 -5.72592,3.42198 0,2.80474 9.11805,7.32538 18.51591,9.18002 5.25877,1.03781 11.42883,2.28078 13.71125,2.76216 2.45256,0.51727 3.64203,1.69686 2.90826,2.88411 -0.84045,1.3599 -6.71622,1.68224 -18.18847,0.99779 -9.32082,-0.55609 -16.94695,-0.30357 -16.94695,0.56115 0,2.49009 17.67294,23.06275 23.53548,27.39712 l 5.31242,3.92762 -5.36676,6.11238 c -10.26159,11.68732 -4.47034,25.68864 11.89528,28.75885 9.13307,1.71337 7.73157,3.84308 -4.12907,6.27447 -14.14255,2.89915 -14.94439,3.1807 -14.94439,5.24749 0,2.46484 19.831,18.77886 30.24822,24.88374 7.36197,4.31442 11.04663,5.10947 27.61673,5.95902 l 19.12128,0.98034 -11.17918,5.01917 c -6.14855,2.76055 -17.49458,6.63437 -25.21339,8.60851 -7.71882,1.97415 -14.45348,4.00863 -14.96594,4.52109 -2.27278,2.27276 4.29759,5.22533 20.16328,9.06091 18.39719,4.44758 25.79143,7.57661 30.68651,12.98559 3.01804,3.3349 2.76125,3.43481 -9.10722,3.54348 -21.9374,0.20089 -35.58775,9.55939 -35.58775,24.39851 0,7.81342 4.88736,14.07464 15.75322,20.18159 3.7441,2.10432 6.80746,4.39731 6.80746,5.09557 0,0.69825 -2.09545,2.64254 -4.65656,4.32064 -3.72387,2.43998 -4.55101,4.2764 -4.12954,9.16838 0.28987,3.36451 -0.0601,6.70443 -0.77776,7.42207 -1.98641,1.9864 -1.55615,10.59366 0.63929,12.78911 1.38445,1.38445 0.47487,2.31279 -3.15989,3.22507 -6.58801,1.65348 -9.65282,4.26714 -9.65282,8.23186 0,1.74659 4.06329,12.03992 9.02956,22.87407 9.79694,21.37256 10.60921,25.65091 6.15935,32.44225 -3.8948,5.94421 -5.40339,5.64154 -8.93075,-1.79184 -5.31712,-11.20501 -7.59434,-11.58121 -11.85121,-1.95786 -4.50441,10.18298 -3.76417,14.64898 4.51587,27.24478 7.97203,12.12725 11.21003,18.76565 12.52092,25.66982 l 1.09251,5.75404 -9.43815,-4.19055 c -5.19097,-2.30481 -12.17962,-4.68841 -15.53029,-5.29689 -6.86806,-1.24725 -6.67797,-3.04891 -2.08048,19.71664 3.11981,15.44842 0.221,28.11411 -7.18477,31.39222 -8.26093,3.65662 -12.21578,11.91723 -13.58977,28.38533 -1.53346,18.37914 -5.26581,31.94551 -9.95673,36.19071 -3.62026,3.2763 -3.66496,3.22942 -3.66496,-3.84212 0,-5.9652 -1.20818,-8.33865 -7.24577,-14.23419 -4.32023,-4.21859 -7.25175,-6.01264 -7.26061,-4.44337 -0.0534,9.46431 -4.13275,35.70433 -6.39077,41.10851 -1.49106,3.56863 -6.25606,10.63794 -10.58888,15.70955 -4.33282,5.07162 -11.56791,16.55594 -16.07797,25.52068 -7.61285,15.13231 -16.74474,27.76941 -18.67325,25.84089 -0.4536,-0.4536 0.40668,-4.31496 1.91176,-8.58081 3.15603,-8.94513 3.46396,-16.09496 0.86052,-19.98066 -1.97443,-2.94692 -1.63314,-3.24768 -13.11941,11.56071 -2.76787,3.56839 -9.76102,9.69908 -15.54037,13.62375 -8.43021,5.72486 -11.78994,9.56439 -16.99187,19.41848 l -6.48398,12.28271 -1.2772,-8.51698 c -1.30344,-8.69196 -4.8222,-11.32594 -7.14309,-5.34695 -1.09038,2.809 -1.49465,2.67981 -3.54999,-1.13451 l -2.31947,-4.30453 -4.603,6.11597 c -2.53163,3.36379 -6.09595,10.91362 -7.92069,16.77744 -2.74395,8.81766 -5.55031,12.89017 -16.22734,23.54873 -7.10026,7.08798 -13.26498,13.99926 -13.69934,15.35841 -0.6197,1.93898 -2.14022,1.64788 -7.06085,-1.35181 -3.72197,-2.26897 -9.33842,-3.82571 -13.81697,-3.82973 -6.54093,-0.005 -8.47085,0.9993 -14.49152,7.54762 -14.16819,15.40991 -15.5238,16.36724 -21.40284,15.11454 -3.00777,-0.64089 -8.1179,-1.62691 -11.35585,-2.19118 l -5.88719,-1.02592 0,8.79218 0,8.79219 -5.33221,-5.83802 c -8.11514,-8.88495 -19.41869,-7.79299 -39.04808,3.77217 -14.23044,8.38425 -19.69793,8.31772 -33.11991,-0.40305 -6.26045,-4.06762 -11.7627,-7.39569 -12.22723,-7.39569 -1.8318,0 -0.67112,7.18283 2.78297,17.22232 1.99516,5.79904 3.3964,10.77489 3.11385,11.05743 -0.28253,0.28255 -4.56418,-2.74348 -9.51474,-6.72448 -13.5743,-10.9158 -21.50344,-14.63175 -26.86875,-12.59187 -2.45592,0.93375 -4.99755,3.3747 -5.64809,5.42436 -1.27538,4.01839 -3.65967,4.83994 -5.48325,1.88932 -1.997,-3.23123 -15.06084,-9.03132 -20.34166,-9.03132 -6.97704,0 -15.32798,6.25999 -23.99724,17.98871 -6.5557,8.86927 -7.27116,9.36953 -7.27116,5.08417 z m -36.70892,-332.64 c 7.72905,-3.04651 10.56351,-3.22684 25.14002,-1.59941 13.75764,1.536 18.09541,1.34974 26.67894,-1.14557 8.09663,-2.35375 10.25013,-3.74919 10.25013,-6.64201 0,-5.44925 -5.00596,-14.39291 -12.34159,-22.0496 l -6.50809,-6.7929 7.85041,0 7.8504,0 -1.0379,-6.39585 c -0.57084,-3.51773 -2.31133,-8.94852 -3.86775,-12.06842 -1.55641,-3.11992 -2.55067,-5.95174 -2.20945,-6.29295 0.3412,-0.34122 4.93931,0.19868 10.21801,1.19978 24.42568,4.63223 82.8251,0.97078 100.18113,-6.28103 10.26866,-4.29052 10.83653,-3.43538 4.01966,6.05322 -3.48538,4.85138 -6.33704,9.74227 -6.33704,10.86864 0,3.46033 -3.14308,2.26688 -4.14774,-1.57492 -0.52108,-1.99258 -1.8073,-3.62288 -2.85826,-3.62288 -2.60981,0 -7.4016,16.59648 -8.71288,30.17737 -0.98782,10.23066 -0.69993,11.53459 3.46655,15.70108 6.29412,6.29412 15.59294,8.44289 36.58773,8.45466 22.98137,0.0127 27.92106,-2.30123 47.97717,-22.47628 l 15.25218,-15.34263 -10.48068,-34.97586 c -5.76439,-19.2367 -12.11947,-38.20198 -14.12239,-42.14503 -5.53457,-10.89556 -20.62202,-24.22938 -41.45267,-36.63452 -24.0332,-14.31236 -32.47897,-17.86557 -48.3,-20.32029 -19.01272,-2.94992 -62.36575,-2.48709 -76.37717,0.81538 -23.18361,5.46436 -57.88699,23.84934 -69.07898,36.59632 -8.17304,9.30856 -11.60527,18.26025 -16.07831,41.93422 -4.80798,25.44659 -10.68866,38.69529 -25.12296,56.60009 -6.14363,7.62073 -11.17023,14.60232 -11.17023,15.51459 0,0.9123 2.64923,2.95937 5.88718,4.54907 3.23795,1.58969 11.18565,7.00055 17.66155,12.02415 10.93344,8.48147 12.51347,9.13993 22.12309,9.21951 6.07953,0.0503 13.94238,-1.33078 19.05994,-3.34793 l 0,0 z"
     id="path3005"
     inkscape:connector-curvature="0"
     transform="matrix(0.8,0,0,0.8,-3.90625e-4,0)" />
  <path
     style="fill:#000000"
     d="m 405.38477,837.24899 c 0,-6.7606 -6.23799,-10.2283 -18.39955,-10.2283 -13.78102,0 -16.92413,-1.42259 -31.59256,-14.29895 -12.53977,-11.00778 -30.39574,-21.92986 -35.85203,-21.92986 -3.49835,0 -3.91317,7.4689 -0.89558,16.12512 3.34126,9.58477 0.54045,8.40403 -8.68287,-3.66042 -14.78767,-19.34281 -22.32388,-26.69116 -32.459,-31.64981 -11.13,-5.44539 -15.14477,-4.827 -15.40279,2.37244 -0.0993,2.77107 -0.76863,7.07618 -1.48736,9.56691 -1.26859,4.39616 -1.42247,4.30508 -5.2624,-3.11478 -2.17557,-4.20386 -5.17151,-12.31167 -6.65767,-18.01738 -3.11816,-11.97143 -5.64214,-15.4997 -8.19699,-11.45863 -0.93954,1.4861 -1.802,5.14746 -1.91658,8.13634 -0.11448,2.98887 -0.74171,7.33055 -1.39368,9.64817 l -1.18537,4.21382 -3.9799,-4.2364 c -2.18895,-2.33001 -5.76118,-8.30199 -7.93832,-13.27104 -5.85147,-13.35536 -10.34807,-18.99756 -15.14022,-18.99756 -4.97093,0 -7.67331,2.86967 -8.52922,9.0572 -0.62699,4.53261 -2.05852,2.8455 -23.7223,-27.95707 -2.82681,-4.01929 -5.157,3.66554 -4.35764,14.37127 0.77704,10.40696 0.70462,10.63781 -1.70505,5.43432 -1.38411,-2.98888 -5.08503,-12.77066 -8.22426,-21.73729 -6.92382,-19.77655 -16.2662,-30.14368 -33.28413,-36.93495 C 96.891754,665.8212 95.62841,664.62127 95.62841,646.8723 c 0,-5.52908 -0.736083,-10.05288 -1.63574,-10.05288 -0.899658,0 -4.068614,3.03264 -7.042126,6.73921 l -5.406384,6.73921 -1.3291,-21.2716 -1.329101,-21.27158 -5.716119,1.07235 c -4.23983,0.79539 -6.990095,0.0703 -10.648901,-2.80779 -5.787705,-4.5526 -6.507217,-8.14802 -1.309902,-6.5456 l 7.245763,2.23398 c 3.103338,0.9568 3.622881,0.28169 3.622881,-4.7077 0,-8.60889 -4.970242,-17.57833 -13.856987,-25.00674 -7.224675,-6.03907 -7.880301,-7.28772 -7.880301,-15.00795 0,-5.96765 -1.303381,-10.34146 -4.47401,-15.01364 -2.460707,-3.62605 -3.646376,-6.59283 -2.634824,-6.59283 1.011554,0 3.840008,-2.00082 6.285453,-4.44627 3.314858,-3.31484 4.446262,-6.38998 4.446262,-12.08486 0,-6.756 -0.994191,-8.58462 -8.604343,-15.82594 -18.452726,-17.55837 -19.831082,-22.44181 -12.118029,-42.9335 7.535093,-20.0189 6.555756,-25.90567 -7.589979,-45.62309 -2.90015,-4.04245 -2.862377,-4.07574 4.625015,-4.07574 10.988579,0 16.441574,-5.94138 16.441574,-17.91415 0,-11.97653 -1.797477,-16.13842 -11.866281,-27.47536 l -8.480581,-9.54868 5.966939,-3.08563 5.96694,-3.08562 -4.735994,-4.736 -4.735993,-4.73599 5.319603,-14.57607 c 2.925781,-8.01682 5.319604,-16.48052 5.319604,-18.8082 0,-6.04482 -6.246704,-13.16727 -13.707938,-15.62969 -3.523037,-1.16271 -6.116538,-2.64824 -5.763335,-3.30115 8.270889,-15.28947 10.853795,-31.899 6.090924,-39.16806 -1.626205,-2.48191 -5.435693,-5.79447 -8.465529,-7.36126 l -5.508792,-2.84871 9.238925,-8.30658 c 7.666534,-6.89287 16.304304,-19.14879 16.304304,-23.13376 0,-0.53784 -1.935977,-0.97789 -4.302171,-0.97789 -2.366195,0 -6.889068,-0.51738 -10.05083,-1.14974 -5.668338,-1.13365 -5.566811,-1.23768 7.266549,-7.44529 13.285264,-6.42621 29.656815,-20.59937 28.347795,-24.54122 -0.399415,-1.20277 -4.847446,-2.69801 -9.884512,-3.32278 -9.4777,-1.17554 -20.472549,-6.39197 -20.382658,-9.67041 0.05713,-2.08374 17.450488,-13.1896 26.642994,-17.01186 3.251358,-1.35193 5.911562,-3.18366 5.911562,-4.07053 0,-4.43364 -13.766835,-16.41901 -21.117795,-18.38509 -4.325891,-1.157 -7.865256,-2.57991 -7.865256,-3.16202 0,-1.8306 19.213538,-10.5725 26.059844,-11.85688 6.002855,-1.12614 6.546088,-1.74141 6.546088,-7.414167 0,-4.949376 -1.690413,-7.876528 -8.455375,-14.641491 -4.650458,-4.650455 -7.707264,-8.716171 -6.792903,-9.034919 0.914361,-0.318748 7.368511,-3.759321 14.342558,-7.645718 C 89.659119,52.005468 99.251291,39.490569 99.251291,20.258424 l 0,-10.395979 8.531439,0.552111 c 7.33963,0.474983 8.70619,1.184741 9.78236,5.080713 2.72598,9.86864 1.43706,34.0104 -3.2267,60.436858 -4.19121,23.748869 -4.8401,32.387443 -4.84887,64.552553 -0.0118,42.89516 2.87107,60.83205 14.15426,88.06974 3.66546,8.84845 9.083,22.01018 12.03897,29.24827 2.95597,7.2381 8.67265,28.02438 12.70373,46.19173 4.03108,18.16738 9.20817,37.92246 11.50464,43.90021 2.29647,5.97776 5.08332,13.64964 6.193,17.04863 5.90768,18.09548 26.54623,46.62518 49.28901,68.1347 20.43501,19.32686 30.73321,22.74316 46.11361,15.29765 13.21416,-6.39685 19.76208,-14.4057 24.96427,-30.53404 6.27854,-19.46531 16.4525,-40.55838 23.3543,-48.41911 3.09775,-3.52812 13.03178,-12.64276 22.07567,-20.25476 9.04387,-7.61199 29.01256,-24.7731 44.37486,-38.13581 15.3623,-13.36271 31.26806,-25.77177 35.34613,-27.57569 8.15448,-3.6071 31.86066,-6.3429 70.76902,-8.16703 l 25.36017,-1.18895 14.49153,13.03589 c 16.87962,15.18409 20.6061,17.36054 37.87442,22.12048 18.57791,5.12094 36.80249,14.457 47.76928,24.4712 5.25977,4.80289 15.50967,17.11489 22.77756,27.36 13.98741,19.71719 50.22634,55.60578 58.15902,57.59675 6.55351,1.64484 13.85905,-3.27922 29.00528,-19.55003 17.07403,-18.34174 21.93407,-26.37309 27.5239,-45.48395 10.33831,-35.34521 13.30315,-55.91345 15.19094,-105.38516 2.0939,-54.87302 3.09153,-61.82189 12.873,-89.66632 6.85158,-19.50402 7.25482,-21.75507 6.32764,-35.32309 -0.54465,-7.97034 -4.22216,-33.647511 -8.17226,-57.060382 -9.62531,-57.0510276 -9.5168,-56.154661 -6.7976,-56.154661 2.99529,0 7.22311,4.897774 20.25155,23.460698 5.90964,8.420069 19.21219,23.676541 29.56119,33.903272 l 18.81637,18.594054 -7.49487,1.19848 c -4.12217,0.659164 -7.49487,1.788867 -7.49487,2.510451 0,2.81562 25.18307,30.215468 32.31072,35.154948 4.14753,2.87425 7.54098,5.8887 7.54098,6.69879 0,2.30531 -11.48479,10.48626 -17.82281,12.69569 -3.14926,1.09784 -5.72592,2.71055 -5.72592,3.58379 0,2.42663 9.49196,6.80214 19.28804,8.89121 16.50735,3.52028 17.10552,3.73756 15.85586,5.75956 -0.81953,1.32603 -6.62657,1.68762 -17.31527,1.07818 -8.84521,-0.50433 -16.48775,-0.26078 -16.98341,0.54122 -1.14585,1.85401 15.68468,22.17091 22.60455,27.28699 l 5.22667,3.86425 -5.28102,7.29024 c -2.90455,4.00962 -5.28102,9.2685 -5.28102,11.68638 0,6.03619 8.93881,14.45991 16.93614,15.96022 3.63692,0.6823 6.61259,1.88366 6.61259,2.6697 0,0.78604 -4.27953,2.39679 -9.51006,3.57945 -16.46542,3.72292 -16.05297,3.5045 -13.9692,7.39806 3.15178,5.88916 28.19745,23.55799 37.25954,26.28528 4.69305,1.41239 15.12821,2.60215 23.18929,2.64392 l 14.65649,0.0759 -6.34004,3.46764 c -6.86538,3.75495 -29.89575,11.70879 -39.39884,13.60689 -11.71458,2.33982 -6.01479,6.16421 16.75583,11.24264 14.633,3.26352 23.83648,7.47333 28.98305,13.25728 l 3.62288,4.07154 -6.45103,-1.17958 c -8.80798,-1.61055 -24.74006,1.66957 -31.95751,6.57946 -3.27537,2.22817 -7.23462,6.73148 -8.79836,10.00738 -5.08725,10.65736 0.96696,20.55282 19.12957,31.26675 2.24432,1.32391 1.80032,2.34848 -2.55148,5.88775 -4.44318,3.61355 -5.09106,5.17293 -4.13509,9.95279 0.62348,3.11735 0.34514,6.15519 -0.61851,6.75075 -2.36366,1.46084 -2.22922,10.53603 0.19195,12.9572 1.38445,1.38445 0.47487,2.3128 -3.15989,3.22507 -6.34133,1.59157 -9.65282,4.24598 -9.65282,7.73745 0,1.47465 4.07574,11.88814 9.0572,23.14108 9.71861,21.95399 10.63674,26.82754 6.23733,33.10859 -3.87132,5.52706 -5.32547,5.09926 -9.40523,-2.76696 -5.00635,-9.65279 -8.4947,-9.57828 -12.25262,0.2617 -3.61296,9.46041 -2.49628,14.45903 6.00695,26.88868 7.0116,10.24926 10.47911,17.38391 11.77871,24.23554 l 1.07111,5.64704 -10.32246,-4.24548 c -5.67736,-2.335 -12.6592,-4.2648 -15.51521,-4.28844 -4.51217,-0.0373 -5.0479,0.49117 -4.08771,4.03274 3.99515,14.73551 5.01508,27.12774 2.94346,35.7632 -1.19671,4.98847 -3.15736,9.06996 -4.35698,9.06996 -1.19963,0 -4.85521,2.75893 -8.12352,6.13096 -5.202,5.3671 -6.15906,7.90607 -7.68179,20.37871 -2.92385,23.94924 -5.28655,33.17085 -9.81734,38.31693 l -4.32632,4.91386 -0.0572,-7.34327 c -0.0466,-5.96837 -1.23923,-8.48892 -6.37015,-13.46199 -3.4721,-3.3653 -6.65346,-5.76685 -7.06967,-5.33682 -0.41624,0.43006 -1.67915,8.41521 -2.8065,17.7448 -2.49141,20.61786 -4.48288,25.63434 -16.03131,40.38223 -4.94835,6.31931 -12.30964,18.01081 -16.35843,25.98115 -11.71308,23.05809 -21.98739,33.14018 -15.74667,15.45206 3.15506,-8.94239 3.46396,-16.09325 0.86315,-19.98066 -1.52018,-2.27216 -2.46546,-1.82718 -5.77205,2.71716 -4.66683,6.41379 -15.77227,17.31196 -27.02771,26.5233 -4.45576,3.64654 -10.61238,11.3436 -13.76461,17.20869 l -5.70312,10.61123 -1.24484,-7.73876 c -1.45176,-9.02503 -3.68493,-11.12915 -6.99999,-6.59553 -2.22735,3.04608 -2.44311,2.9977 -3.65471,-0.81969 -1.06407,-3.35262 -1.75583,-3.66828 -3.98482,-1.8184 -3.62015,3.00447 -8.84152,13.4781 -11.33435,22.73577 -1.44104,5.3516 -5.35206,10.89482 -13.41247,19.00993 -6.25804,6.30054 -12.679,13.34954 -14.26879,15.66447 l -2.89051,4.20897 -7.36261,-3.75611 c -12.81759,-6.53905 -17.32333,-5.34237 -30.77224,8.17284 -10.77775,10.83088 -12.3793,11.82061 -17.39842,10.75184 -3.04039,-0.64741 -8.17722,-1.63877 -11.41517,-2.20304 l -5.88719,-1.02592 0,8.74382 0,8.74384 -5.97342,-5.78965 c -8.40987,-8.15118 -15.0347,-7.70792 -35.29993,2.36181 -9.02262,4.48332 -18.38106,8.15148 -20.79651,8.15148 -2.41547,0 -9.50235,-3.30312 -15.74863,-7.3403 -6.24626,-4.03716 -11.82862,-6.86853 -12.4052,-6.29193 -0.5766,0.5766 0.68244,6.92561 2.79784,14.10893 2.11542,7.18332 3.66212,13.24466 3.43714,13.46966 -0.225,0.22498 -5.13973,-3.30385 -10.92163,-7.84186 -5.7819,-4.53802 -13.32123,-9.42449 -16.75405,-10.8588 -6.05092,-2.52823 -6.40803,-2.44137 -11.69403,2.84463 l -5.45251,5.45251 -7.0169,-4.64358 c -3.85931,-2.55397 -10.17184,-5.06674 -14.02785,-5.58394 -8.14721,-1.09277 -14.33205,3.19282 -26.10837,18.091 -6.36172,8.04821 -6.99145,8.43159 -6.99145,4.25632 z M 368.21475,504.74973 c 8.52378,-2.99587 11.7217,-3.21993 23.95632,-1.67852 7.76568,0.97838 17.26179,1.28815 21.10247,0.68842 9.19648,-1.43609 17.4714,-5.82885 17.4714,-9.27478 0,-4.32615 -5.04362,-13.00641 -12.08762,-20.8033 l -6.44835,-7.13755 7.45654,0 c 6.53688,0 7.45164,-0.50269 7.41676,-4.07574 -0.0219,-2.24166 -1.66667,-7.66149 -3.65507,-12.04409 -1.98841,-4.38258 -3.35752,-8.2261 -3.04246,-8.54116 0.31505,-0.31507 6.23937,0.31512 13.16514,1.40037 7.49375,1.17428 24.6941,1.58211 42.48107,1.00729 28.52719,-0.92195 34.65571,-1.88339 61.16,-9.59484 3.79437,-1.10398 3.62578,-0.48867 -2.2643,8.26395 -3.50016,5.20121 -6.36392,10.18999 -6.36392,11.08617 0,3.13741 -3.20935,1.59493 -4.14774,-1.99348 -0.52108,-1.99258 -1.8073,-3.62288 -2.85826,-3.62288 -2.61143,0 -7.40191,16.59957 -8.7148,30.1978 -1.01845,10.54857 -0.79532,11.44079 3.96457,15.8521 7.23848,6.70838 17.20954,8.75776 38.9052,7.99626 17.91189,-0.62868 19.52686,-1.00728 27.19425,-6.37529 4.48332,-3.13881 13.80318,-11.44792 20.7108,-18.46467 l 12.5593,-12.75772 -9.71938,-32.22584 c -5.34567,-17.7242 -11.18642,-35.72342 -12.97944,-39.99827 -9.46179,-22.55827 -57.71194,-55.42628 -89.74986,-61.13759 -18.91464,-3.37187 -61.34204,-3.31643 -77.51104,0.10126 -19.18658,4.05556 -54.46524,22.05295 -66.76236,34.05879 -10.90245,10.64421 -14.15045,18.66862 -20.29779,50.1472 -3.9042,19.99209 -10.37769,33.80735 -24.0907,51.41248 -6.11676,7.85288 -11.12139,14.93049 -11.12139,15.72805 0,0.79754 1.54166,1.93938 3.42592,2.53743 1.88426,0.59804 10.1615,5.95143 18.39384,11.89643 13.39932,9.67634 15.89253,10.80909 23.79094,10.80909 4.85267,0 13.24964,-1.55583 18.65996,-3.45741 l 0,4e-5 z"
     id="path3009"
     inkscape:connector-curvature="0"
     transform="matrix(0.8,0,0,0.8,-3.90625e-4,0)" />
</svg>
